<svg version="1.1" id="Layer_1" xmlns="http://www.w3.org/2000/svg" xmlns:xlink="http://www.w3.org/1999/xlink" x="0px" y="0px"
	 width="100%" viewBox="0 0 768 920" enable-background="new 0 0 768 920" xml:space="preserve">
<path fill="#3551F2" opacity="1.000000" stroke="none" 
	d="
M416.000000,921.000000 
	C395.645782,921.000000 375.291534,921.000000 354.675903,920.617554 
	C354.068787,919.892517 353.767639,919.316406 353.371124,919.240906 
	C329.340424,914.664917 306.880524,906.144958 286.210938,892.939270 
	C285.060455,892.204224 282.456573,892.673035 281.092438,893.505005 
	C262.079102,905.100586 241.995239,913.936279 219.998413,918.143066 
	C217.893784,918.545593 215.994568,920.022095 214.000000,921.000000 
	C193.645767,921.000000 173.291550,921.000000 152.675873,920.617493 
	C151.911621,919.845825 151.452057,919.196655 150.899826,919.104858 
	C127.433525,915.201904 105.739014,906.364746 85.819511,893.762573 
	C69.644310,883.529236 55.414143,870.693726 43.192673,855.765015 
	C32.622753,842.853699 23.670950,829.110596 16.703602,813.805115 
	C10.367388,799.886108 6.198303,785.515869 2.920636,770.735413 
	C2.768365,770.048767 1.662037,769.573608 1.000020,769.000000 
	C1.000000,625.979126 1.000000,482.958221 1.402069,339.655670 
	C2.199857,338.533386 2.803396,337.729584 2.960024,336.846527 
	C5.207424,324.176239 6.698994,311.323608 9.773975,298.860687 
	C13.537836,283.605774 17.765913,268.351624 23.346867,253.688446 
	C29.924530,236.406555 37.243050,219.267120 45.916786,202.957489 
	C57.014748,182.089462 70.046555,162.345047 85.244247,144.035553 
	C99.223694,127.193741 114.389389,111.633423 130.500595,96.863876 
	C146.485123,82.210457 163.670319,69.163864 182.232376,58.110027 
	C197.162842,49.218845 212.503555,40.851093 228.281616,33.598549 
	C242.096710,27.248295 256.685242,22.517429 271.090973,17.530039 
	C292.866028,9.991312 315.429688,5.873384 338.229156,2.910977 
	C338.891052,2.824977 339.412872,1.661230 340.000000,0.999998 
	C369.687561,1.000000 399.375122,1.000000 429.349731,1.407110 
	C430.479218,2.206618 431.286011,2.810619 432.169495,2.959610 
	C445.034546,5.129167 458.114777,6.417044 470.731476,9.566450 
	C486.922943,13.608200 503.047394,18.332758 518.642090,24.238359 
	C535.487976,30.617785 552.272339,37.642338 568.012634,46.326515 
	C584.655518,55.508678 600.384521,66.490883 615.885254,77.565063 
	C637.929321,93.313927 658.024658,111.403229 674.989990,132.621140 
	C686.614014,147.158875 697.919006,161.995071 708.590942,177.240814 
	C726.749573,203.181900 739.701599,231.856064 749.843994,261.710388 
	C754.529907,275.503510 757.672729,289.851868 760.973755,304.074188 
	C763.437866,314.690918 765.004089,325.514954 767.084656,336.224396 
	C767.218689,336.914246 768.338684,337.412598 769.000000,338.000000 
	C769.000000,481.687561 769.000000,625.375122 768.617554,769.324036 
	C767.491882,772.007141 766.605652,774.395386 766.028259,776.856079 
	C761.739014,795.136047 755.922241,812.907715 745.896606,828.864014 
	C738.461853,840.696655 731.032593,852.848389 721.642700,863.056824 
	C709.950684,875.768005 696.326782,886.562866 681.254517,895.593506 
	C663.450867,906.260864 644.689026,913.814575 624.473511,918.104797 
	C622.531677,918.516846 620.819031,920.009155 619.000000,921.000000 
	C598.312439,921.000000 577.624878,921.000000 556.675964,920.617554 
	C556.067871,919.891968 555.765503,919.314331 555.368164,919.239319 
	C531.430481,914.718811 509.091980,906.156921 488.459656,893.130737 
	C487.305481,892.402100 484.990662,892.532532 483.689911,893.194336 
	C479.336945,895.409241 475.271759,898.181946 470.966217,900.499146 
	C454.214874,909.514954 436.377594,915.446777 417.733978,919.081482 
	C417.057037,919.213440 416.573608,920.338013 416.000000,921.000000 
M728.852478,593.500000 
	C728.852478,523.010376 729.205017,452.517853 728.618042,382.033142 
	C728.460693,363.141663 726.806702,344.030182 723.493958,325.437714 
	C709.244873,245.467407 671.430115,178.261383 609.794312,125.388840 
	C531.824768,58.504932 441.038269,31.904198 339.225006,44.413841 
	C285.443176,51.021931 236.145645,70.503426 191.417679,101.200043 
	C142.185837,134.987656 104.034935,178.596924 77.337166,231.964615 
	C52.936005,280.741455 41.206181,332.573761 41.271763,387.169342 
	C41.411884,503.817841 41.214336,620.466919 41.477566,737.114990 
	C41.502522,748.173218 42.632965,759.511169 45.235348,770.237549 
	C69.600342,870.663879 185.441971,914.604858 269.129150,851.546936 
	C279.571198,843.678833 288.335571,843.578613 298.704742,851.404175 
	C350.975891,890.853027 420.455994,890.612549 472.304779,850.803223 
	C481.779633,843.528442 490.684814,843.564392 500.114471,850.740234 
	C529.444580,873.060303 562.471497,883.078674 599.270142,880.144470 
	C671.337463,874.398010 728.785645,812.231934 728.844849,739.977600 
	C728.884583,691.485046 728.852356,642.992554 728.852478,593.500000 
z"/>
<path fill="#010202" opacity="1.000000" stroke="none" 
	d="
M728.852417,594.000000 
	C728.852356,642.992554 728.884583,691.485046 728.844849,739.977600 
	C728.785645,812.231934 671.337463,874.398010 599.270142,880.144470 
	C562.471497,883.078674 529.444580,873.060303 500.114471,850.740234 
	C490.684814,843.564392 481.779633,843.528442 472.304779,850.803223 
	C420.455994,890.612549 350.975891,890.853027 298.704742,851.404175 
	C288.335571,843.578613 279.571198,843.678833 269.129150,851.546936 
	C185.441971,914.604858 69.600342,870.663879 45.235348,770.237549 
	C42.632965,759.511169 41.502522,748.173218 41.477566,737.114990 
	C41.214336,620.466919 41.411884,503.817841 41.271763,387.169342 
	C41.206181,332.573761 52.936005,280.741455 77.337166,231.964615 
	C104.034935,178.596924 142.185837,134.987656 191.417679,101.200043 
	C236.145645,70.503426 285.443176,51.021931 339.225006,44.413841 
	C441.038269,31.904198 531.824768,58.504932 609.794312,125.388840 
	C671.430115,178.261383 709.244873,245.467407 723.493958,325.437714 
	C726.806702,344.030182 728.460693,363.141663 728.618042,382.033142 
	C729.205017,452.517853 728.852478,523.010376 728.852417,594.000000 
M102.349144,274.940186 
	C89.264008,308.825439 82.006104,343.885345 81.971695,380.248291 
	C81.858643,499.746216 81.927383,619.244263 81.940102,738.742310 
	C81.940399,741.572205 81.866394,744.432556 82.226021,747.227417 
	C87.329834,786.890259 107.455986,816.249451 144.295776,832.031494 
	C179.936569,847.299866 214.043900,841.906311 245.169952,818.825928 
	C270.028595,800.392944 298.418732,800.396729 323.184174,819.151855 
	C360.144318,847.142090 409.566376,847.735046 446.194336,819.500183 
	C470.063049,801.100647 501.924713,800.022522 526.257507,819.562683 
	C549.300049,838.066956 576.469116,843.807556 605.412903,838.479187 
	C653.791016,829.573059 688.261719,787.381775 688.262634,738.067749 
	C688.264832,620.069702 688.269592,502.071655 688.260254,384.073608 
	C688.256287,333.455597 676.189514,285.877960 652.174622,241.326920 
	C586.837280,120.117126 448.554626,57.339649 314.916656,90.224045 
	C213.378372,115.209656 143.058319,177.876633 102.349144,274.940186 
z"/>
<path fill="#FFFFFF" opacity="1.000000" stroke="none" 
	d="
M102.502632,274.582764 
	C143.058319,177.876633 213.378372,115.209656 314.916656,90.224045 
	C448.554626,57.339649 586.837280,120.117126 652.174622,241.326920 
	C676.189514,285.877960 688.256287,333.455597 688.260254,384.073608 
	C688.269592,502.071655 688.264832,620.069702 688.262634,738.067749 
	C688.261719,787.381775 653.791016,829.573059 605.412903,838.479187 
	C576.469116,843.807556 549.300049,838.066956 526.257507,819.562683 
	C501.924713,800.022522 470.063049,801.100647 446.194336,819.500183 
	C409.566376,847.735046 360.144318,847.142090 323.184174,819.151855 
	C298.418732,800.396729 270.028595,800.392944 245.169952,818.825928 
	C214.043900,841.906311 179.936569,847.299866 144.295776,832.031494 
	C107.455986,816.249451 87.329834,786.890259 82.226021,747.227417 
	C81.866394,744.432556 81.940399,741.572205 81.940102,738.742310 
	C81.927383,619.244263 81.858643,499.746216 81.971695,380.248291 
	C82.006104,343.885345 89.264008,308.825439 102.502632,274.582764 
M229.107544,374.359558 
	C235.221924,377.892700 241.336304,381.425842 247.911911,385.225494 
	C245.714371,386.503967 244.281403,387.342346 242.844025,388.173126 
	C222.815826,399.749023 202.771347,411.296844 182.763977,422.908630 
	C169.797623,430.433990 163.580780,443.601196 166.581879,456.919647 
	C171.258331,477.673248 193.723160,487.818939 212.318359,477.198059 
	C249.747314,455.820038 287.033783,434.192322 324.354736,412.625610 
	C346.150482,400.030457 346.603790,370.990784 324.893341,358.278625 
	C287.261719,336.244232 249.398804,314.604797 211.617554,292.826263 
	C205.128571,289.085785 198.090851,288.245056 190.844025,289.675720 
	C178.060989,292.199341 168.312271,302.308105 166.259613,314.882721 
	C164.204147,327.474487 169.955765,339.997742 181.366196,346.738831 
	C196.984329,355.965759 212.764099,364.919098 229.107544,374.359558 
M513.500000,416.038422 
	C535.814331,416.038422 558.128662,416.061340 580.442932,416.031189 
	C598.441040,416.006866 612.088501,402.592865 612.029602,385.058014 
	C611.971069,367.636627 598.196411,354.226196 580.238770,354.217133 
	C531.280334,354.192413 482.321930,354.186768 433.363525,354.219055 
	C415.368530,354.230896 401.849762,367.627258 401.865295,385.285248 
	C401.880859,402.975922 415.305145,416.019653 433.567047,416.033356 
	C459.878021,416.053101 486.189026,416.038391 513.500000,416.038422 
z"/>
<path fill="#010101" opacity="1.000000" stroke="none" 
	d="
M228.791077,374.174622 
	C212.764099,364.919098 196.984329,355.965759 181.366196,346.738831 
	C169.955765,339.997742 164.204147,327.474487 166.259613,314.882721 
	C168.312271,302.308105 178.060989,292.199341 190.844025,289.675720 
	C198.090851,288.245056 205.128571,289.085785 211.617554,292.826263 
	C249.398804,314.604797 287.261719,336.244232 324.893341,358.278625 
	C346.603790,370.990784 346.150482,400.030457 324.354736,412.625610 
	C287.033783,434.192322 249.747314,455.820038 212.318359,477.198059 
	C193.723160,487.818939 171.258331,477.673248 166.581879,456.919647 
	C163.580780,443.601196 169.797623,430.433990 182.763977,422.908630 
	C202.771347,411.296844 222.815826,399.749023 242.844025,388.173126 
	C244.281403,387.342346 245.714371,386.503967 247.911911,385.225494 
	C241.336304,381.425842 235.221924,377.892700 228.791077,374.174622 
z"/>
<path fill="#020202" opacity="1.000000" stroke="none" 
	d="
M513.000000,416.038422 
	C486.189026,416.038391 459.878021,416.053101 433.567047,416.033356 
	C415.305145,416.019653 401.880859,402.975922 401.865295,385.285248 
	C401.849762,367.627258 415.368530,354.230896 433.363525,354.219055 
	C482.321930,354.186768 531.280334,354.192413 580.238770,354.217133 
	C598.196411,354.226196 611.971069,367.636627 612.029602,385.058014 
	C612.088501,402.592865 598.441040,416.006866 580.442932,416.031189 
	C558.128662,416.061340 535.814331,416.038422 513.000000,416.038422 
z"/>
</svg>