<svg xmlns="http://www.w3.org/2000/svg" height="800" width="1200" viewBox="-20.25 -9.533 175.5 57.198"><path d="M112.624 24.082c0-8.31 3.889-13.267 11.19-13.267 7.298 0 11.186 4.958 11.186 13.267 0 8.311-3.888 13.267-11.186 13.267-7.301 0-11.19-4.956-11.19-13.267zm11.19 9.112c4.258 0 4.903-4.368 4.903-9.112 0-4.743-.645-9.11-4.903-9.11-4.26 0-4.905 4.366-4.905 9.11-.001 4.744.645 9.112 4.905 9.112zM41.2 0h5.913v21.099l8.204-9.697h7.086l-9.377 10.974 10.229 14.387h-7.088l-8.948-12.788h-.107v12.788H41.2z"/><path d="M62.724 24.082c0-8.31 3.887-13.267 11.189-13.267 7.298 0 11.186 4.958 11.186 13.267 0 8.311-3.888 13.267-11.186 13.267-7.302 0-11.189-4.956-11.189-13.267zm11.188 9.112c4.262 0 4.9-4.368 4.9-9.112 0-4.743-.637-9.11-4.9-9.11-4.268 0-4.902 4.366-4.902 9.11.001 4.744.635 9.112 4.902 9.112zm20.33-18.755h.104c.797-1.278 2.663-3.624 6.554-3.624 6.074 0 8.74 5.172 8.74 13.267 0 7.086-2.451 13.267-10.712 13.267-6.659 0-10.606-3.785-10.606-11.351V0h5.919v14.439zm4.687 18.755c3.787 0 4.424-4.957 4.424-9.112 0-4.582-.48-9.485-4.424-9.485-3.57 0-4.687 5.223-4.687 9.485 0 6.34.96 9.112 4.687 9.112z"/><path d="M34.333 20.974c0 9.473-7.685 17.158-17.165 17.158C7.683 38.132 0 30.447 0 20.974 0 11.485 7.683 3.802 17.168 3.802c9.48 0 17.165 7.683 17.165 17.172" fill="#BF0000"/><path d="M14.897 30.196v-5.722h2.486l4.29 5.722h4.381l-5.183-6.909c1.62-1.159 2.681-3.043 2.681-5.186 0-3.506-2.855-6.352-6.364-6.352h-5.792v18.447zm0-14.947h2.291c1.571 0 2.86 1.277 2.86 2.853 0 1.587-1.289 2.867-2.86 2.867h-2.291z" fill="#FFF"/></svg>