<svg xmlns="http://www.w3.org/2000/svg" viewBox="0 0 128 128">
<path fill="#5267EA" opacity="1.000000" stroke="none" 
	d="
M90.000000,129.000000 
	C60.000000,129.000000 30.500000,129.000000 1.000000,129.000000 
	C1.000000,86.333336 1.000000,43.666668 1.000000,1.000000 
	C43.666668,1.000000 86.333336,1.000000 129.000000,1.000000 
	C129.000000,43.666668 129.000000,86.333336 129.000000,129.000000 
	C116.166664,129.000000 103.333336,129.000000 90.000000,129.000000 
M103.893951,102.296158 
	C97.952370,91.791237 92.010788,81.286324 85.688171,70.107719 
	C79.554764,81.220390 73.812820,91.623802 67.569092,102.619377 
	C68.254646,103.123451 68.936493,104.060883 69.626305,104.066765 
	C80.449547,104.159126 91.273933,104.150848 102.097542,104.082603 
	C102.739883,104.078552 103.377792,103.371330 103.893951,102.296158 
M61.873230,46.495609 
	C61.873230,39.713421 61.873230,32.931232 61.873230,25.783886 
	C49.390381,25.783886 37.391472,25.783886 25.424896,25.783886 
	C25.424896,38.077011 25.424896,49.947113 25.424896,61.786728 
	C37.690575,61.786728 49.546940,61.786728 61.873184,61.786728 
	C61.873184,56.735664 61.873184,52.114445 61.873230,46.495609 
M53.686871,101.307320 
	C62.306152,94.371620 64.308960,84.841667 58.941376,76.304787 
	C54.031441,68.495781 44.137516,65.497223 35.813656,69.295448 
	C26.421232,73.581268 22.371040,84.754829 26.838068,94.057030 
	C31.536190,103.840454 42.544617,107.061043 53.686871,101.307320 
M88.178749,62.133656 
	C96.830505,60.518108 102.609299,54.958416 103.905861,47.002850 
	C105.153328,39.348495 101.490280,31.669182 94.831306,27.978706 
	C88.745033,24.605633 79.171936,25.516558 73.867531,29.973515 
	C68.020340,34.886536 65.887253,43.075668 68.562820,50.338741 
	C71.460098,58.203697 77.684738,62.142220 88.178749,62.133656 
z"/>
<path fill="#EC99B3" opacity="1.000000" stroke="none" 
	d="
M61.873207,46.994419 
	C61.873184,52.114445 61.873184,56.735664 61.873184,61.786728 
	C49.546940,61.786728 37.690575,61.786728 25.424896,61.786728 
	C25.424896,49.947113 25.424896,38.077011 25.424896,25.783886 
	C37.391472,25.783886 49.390381,25.783886 61.873230,25.783886 
	C61.873230,32.931232 61.873230,39.713421 61.873207,46.994419 
z"/>
<path fill="#F8F9EE" opacity="1.000000" stroke="none" 
	d="
M53.385292,101.521347 
	C42.544617,107.061043 31.536190,103.840454 26.838068,94.057030 
	C22.371040,84.754829 26.421232,73.581268 35.813656,69.295448 
	C44.137516,65.497223 54.031441,68.495781 58.941376,76.304787 
	C64.308960,84.841667 62.306152,94.371620 53.385292,101.521347 
z"/>
<path fill="#171D27" opacity="1.000000" stroke="none" 
	d="
M87.741043,62.165054 
	C77.684738,62.142220 71.460098,58.203697 68.562820,50.338741 
	C65.887253,43.075668 68.020340,34.886536 73.867531,29.973515 
	C79.171936,25.516558 88.745033,24.605633 94.831306,27.978706 
	C101.490280,31.669182 105.153328,39.348495 103.905861,47.002850 
	C102.609299,54.958416 96.830505,60.518108 87.741043,62.165054 
z"/>
<path fill="#FDC451" opacity="1.000000" stroke="none" 
	d="
M68.070877,102.027214 
	C73.812820,91.623802 79.554764,81.220390 85.688171,70.107719 
	C92.010788,81.286324 97.952370,91.791237 103.486130,102.643700 
	C96.973930,102.993233 90.866196,103.121635 84.766144,102.959961 
	C79.196732,102.812355 73.635635,102.350548 68.070877,102.027214 
z"/>
<path fill="#FEC945" opacity="1.000000" stroke="none" 
	d="
M67.819984,102.323296 
	C73.635635,102.350548 79.196732,102.812355 84.766144,102.959961 
	C90.866196,103.121635 96.973930,102.993233 103.548035,102.991287 
	C103.377792,103.371330 102.739883,104.078552 102.097542,104.082603 
	C91.273933,104.150848 80.449547,104.159126 69.626305,104.066765 
	C68.936493,104.060883 68.254646,103.123451 67.819984,102.323296 
z"/>
</svg>