<svg xmlns="http://www.w3.org/2000/svg" viewBox="0 0 512 512">
<path 
	d="
M271.000000,513.000000 
	C180.688583,513.000000 90.877167,513.000000 1.032874,513.000000 
	C1.032874,342.396881 1.032874,171.793777 1.032874,1.095328 
	C171.561432,1.095328 342.122955,1.095328 512.842224,1.095328 
	C512.842224,171.666550 512.842224,342.333252 512.842224,513.000000 
	C432.460419,513.000000 351.980194,513.000000 271.000000,513.000000 
M98.962799,215.758072 
	C98.372505,217.842773 97.782211,219.927460 96.910393,222.738129 
	C96.616997,223.505905 96.239929,224.252808 96.042473,225.044510 
	C91.607735,242.825516 89.898262,260.903351 89.356644,279.084839 
	C88.242676,278.759430 87.122665,278.453278 86.015633,278.105804 
	C68.884262,272.728882 55.392094,282.784271 54.810860,300.793152 
	C54.354752,314.925110 59.234081,326.965393 68.139915,337.373596 
	C75.377167,345.831726 83.892212,352.748840 96.496346,353.506287 
	C98.540176,359.044342 100.584007,364.582397 102.782593,370.861359 
	C106.776123,378.714172 110.769653,386.567017 114.899933,395.084045 
	C120.050690,402.116669 125.201447,409.149292 130.678955,416.814667 
	C137.721924,423.676910 144.764877,430.539185 152.168915,437.946899 
	C160.759155,443.674164 169.349396,449.401428 178.331604,455.689758 
	C213.072784,474.432678 249.982025,480.368225 288.815430,473.865479 
	C308.096222,470.636841 326.426483,464.419495 343.875366,453.975739 
	C351.570465,448.597198 359.265533,443.218628 367.595490,437.654083 
	C373.463013,431.911621 379.330536,426.169159 385.794983,420.074707 
	C389.941742,414.414917 394.088531,408.755127 398.834656,402.773132 
	C401.944122,397.867767 405.053589,392.962402 408.719391,387.653778 
	C411.219147,382.127563 413.718903,376.601379 416.734680,370.594604 
	C418.910828,364.441498 421.086975,358.288391 424.014099,352.119293 
	C424.509766,352.065826 425.038361,352.106140 425.496399,351.945404 
	C445.208160,345.027618 463.064575,320.474060 458.636993,294.914734 
	C457.311584,287.263580 453.094452,280.568481 445.190887,278.313416 
	C440.085968,276.856903 434.412048,277.394745 428.942993,276.097748 
	C429.350769,258.194489 428.295105,240.433411 423.776184,222.246246 
	C421.346741,214.786606 418.917328,207.326965 416.296143,199.126633 
	C413.877930,194.080673 411.459717,189.034698 408.952179,183.286789 
	C404.996979,177.133255 401.041779,170.979721 396.915558,164.177597 
	C392.992676,159.080536 389.465454,153.604492 384.127838,149.569351 
	C385.101227,155.514450 385.964081,160.784561 386.496185,166.658386 
	C385.697662,167.045212 384.899109,167.432022 383.993805,167.115845 
	C381.610107,161.745941 379.226410,156.376038 376.750610,150.301407 
	C374.118469,145.536697 371.486328,140.771988 368.820770,135.325317 
	C360.221985,122.432831 347.781097,113.571091 335.836609,103.711914 
	C335.732727,103.668823 335.628876,103.625732 335.524994,103.582642 
	C335.699982,103.705917 335.874969,103.829193 335.869263,104.693497 
	C340.078461,112.401939 343.173157,120.273003 339.324646,129.404327 
	C337.979401,126.251549 336.710449,123.277588 335.289581,119.668221 
	C333.776337,116.781883 332.263092,113.895554 330.581848,110.378441 
	C326.540070,106.840622 322.949707,102.480499 318.351501,99.956268 
	C311.324371,96.098663 307.361877,90.699356 305.971741,83.058472 
	C305.650970,81.295181 305.317444,79.534210 304.922333,77.409348 
	C299.641693,85.922905 299.971008,97.040520 290.842896,103.815201 
	C289.988281,101.121422 289.493225,99.560913 289.082794,97.079529 
	C289.008240,94.751976 288.975128,92.422256 288.852875,90.097206 
	C287.493896,64.249893 276.319336,49.099510 252.559784,40.920231 
	C251.441635,40.535301 250.231003,40.419033 250.124725,40.397064 
	C252.163864,50.156883 254.986023,59.727180 255.978409,69.483604 
	C257.044189,79.961563 252.616638,88.876465 244.268021,96.467384 
	C242.836472,78.291908 236.920715,61.650406 229.849426,55.388927 
	C229.684540,55.894569 229.410202,56.339920 229.413254,56.783340 
	C229.553024,76.991150 218.801910,89.168877 200.682373,96.054863 
	C198.259460,96.975647 196.115463,98.630409 193.208054,100.139015 
	C188.180862,105.435402 183.153671,110.731789 177.585129,116.438774 
	C175.250137,120.244392 172.915146,124.050011 170.082489,128.306488 
	C167.912781,132.589127 165.743073,136.871765 163.127075,141.736786 
	C161.226562,145.102402 159.326035,148.468002 156.890472,152.781128 
	C156.890472,146.638779 156.890472,141.589050 156.890472,136.539322 
	C156.483231,136.225266 156.076004,135.911224 155.668762,135.597168 
	C148.099625,143.061264 140.530472,150.525360 132.374756,158.301437 
	C128.029099,163.872849 123.683449,169.444260 118.874092,175.541870 
	C113.457458,185.724823 108.040833,195.907776 102.151871,206.523743 
	C101.164764,209.370529 100.177666,212.217316 98.962799,215.758072 
z" fill="none"/>
<path fill="#FFBA3A" opacity="1.000000" stroke="none" 
	d="
M132.961334,157.989441 
	C140.530472,150.525360 148.099625,143.061264 155.668762,135.597168 
	C156.076004,135.911224 156.483231,136.225266 156.890472,136.539322 
	C156.890472,141.589050 156.890472,146.638779 156.890472,152.781128 
	C159.326035,148.468002 161.226562,145.102402 163.557495,141.853104 
	C166.619400,142.634583 169.272949,143.936295 171.878250,143.845963 
	C179.801941,143.571259 187.697647,142.473114 195.621201,142.214432 
	C213.175491,141.641342 230.740097,141.384491 248.300507,140.999084 
	C251.547974,140.927795 254.802536,140.970795 258.041565,140.766556 
	C266.461426,140.235596 274.867218,139.444855 283.292145,139.039276 
	C293.570831,138.544479 303.861847,138.276077 314.150269,138.019501 
	C329.766724,137.630020 345.386566,137.372925 361.002411,136.963028 
	C363.626251,136.894165 366.237244,136.338181 368.854187,136.007263 
	C371.486328,140.771988 374.118469,145.536697 376.350525,150.652084 
	C371.517181,151.335007 367.088837,151.841248 362.649689,151.967621 
	C347.939178,152.386353 333.223206,152.612930 318.512695,153.031357 
	C313.079285,153.185898 307.643280,153.547699 302.234680,154.080902 
	C300.765137,154.225769 299.391052,155.339081 297.561157,155.956512 
	C287.569977,152.872147 279.247986,156.108871 270.781830,161.061615 
	C265.800781,161.038574 261.314301,161.046921 256.540619,160.889496 
	C246.582779,151.450516 232.487854,148.167938 221.760468,156.796295 
	C220.009918,156.320023 218.535141,155.976501 217.074295,156.027954 
	C199.519150,156.646271 181.969742,157.459839 164.411041,157.933105 
	C153.934906,158.215469 143.445038,157.987823 132.961334,157.989441 
z"/>
<path fill="#FE9C2C" opacity="1.000000" stroke="none" 
	d="
M90.187675,279.196289 
	C89.898262,260.903351 91.607735,242.825516 96.042473,225.044510 
	C96.239929,224.252808 96.616997,223.505905 97.400719,222.372787 
	C98.927681,222.336136 99.964310,222.664825 100.845139,223.308319 
	C96.675117,228.413422 97.206276,231.669083 102.965469,233.848236 
	C105.923820,234.967621 109.522354,235.702835 112.529900,235.101883 
	C118.135269,233.981812 123.520187,231.758453 129.087860,230.391373 
	C130.842209,231.192307 132.520874,231.999374 134.166550,231.936951 
	C148.886124,231.378586 163.595078,230.518982 178.316666,230.040878 
	C194.067169,229.529373 209.831924,229.460953 225.583191,228.967133 
	C241.800461,228.458710 258.006104,227.584106 274.222626,227.044571 
	C281.365997,226.806900 288.686340,227.941254 295.629974,226.739822 
	C302.804718,225.498383 309.551025,230.090195 316.550537,227.210388 
	C316.848694,227.087692 317.411530,227.791641 317.842957,227.781052 
	C321.769958,227.684479 325.702393,227.609222 329.616577,227.310120 
	C330.831787,227.217255 331.971039,226.158920 333.188080,226.057129 
	C338.622894,225.602646 344.097778,225.535126 349.502838,224.874573 
	C351.095734,224.679901 352.506836,222.997925 354.383453,222.003891 
	C360.843781,225.340759 366.921906,228.671295 372.998566,232.402466 
	C372.261810,233.785828 371.521790,235.624619 370.791809,235.620636 
	C362.255280,235.574081 353.721375,235.097397 345.184540,235.033295 
	C329.590973,234.916214 313.989594,235.270813 298.403534,234.909225 
	C287.143250,234.647964 276.305878,236.113098 265.573914,239.498795 
	C262.501434,240.468094 258.828186,240.074753 255.516464,239.644272 
	C244.888535,238.262848 234.342041,235.710480 223.688049,235.201157 
	C207.572083,234.430710 191.383392,235.323074 175.242157,234.891129 
	C163.680984,234.581741 152.780807,236.765121 142.370132,241.439529 
	C136.901154,243.895111 130.880585,245.895248 128.000000,252.000000 
	C128.000000,252.000000 127.999695,252.000000 127.635437,252.004150 
	C126.180893,253.005539 125.090599,254.002777 123.857376,255.297119 
	C121.809448,257.729095 119.904442,259.863922 117.700394,262.144409 
	C111.599464,268.859161 105.797577,275.428345 99.695610,282.143677 
	C96.728859,284.198608 94.062195,286.107361 91.276871,287.617432 
	C90.834694,284.544586 90.511185,281.870422 90.187675,279.196289 
z"/>
<path fill="#FFBF3C" opacity="1.000000" stroke="none" 
	d="
M368.837463,135.666290 
	C366.237244,136.338181 363.626251,136.894165 361.002411,136.963028 
	C345.386566,137.372925 329.766724,137.630020 314.150269,138.019501 
	C303.861847,138.276077 293.570831,138.544479 283.292145,139.039276 
	C274.867218,139.444855 266.461426,140.235596 258.041565,140.766556 
	C254.802536,140.970795 251.547974,140.927795 248.300507,140.999084 
	C230.740097,141.384491 213.175491,141.641342 195.621201,142.214432 
	C187.697647,142.473114 179.801941,143.571259 171.878250,143.845963 
	C169.272949,143.936295 166.619400,142.634583 163.780640,141.561905 
	C165.743073,136.871765 167.912781,132.589127 170.778992,128.121811 
	C184.630859,127.291794 197.783035,126.570244 210.942352,126.019791 
	C228.639618,125.279510 246.339615,124.582130 264.043640,124.033577 
	C279.123230,123.566360 294.211609,123.389374 309.293213,122.977753 
	C316.900177,122.770142 324.504700,122.390617 332.100006,121.921814 
	C333.242798,121.851273 334.329102,120.865860 335.441528,120.303635 
	C336.710449,123.277588 337.979401,126.251549 339.324646,129.404327 
	C343.173157,120.273003 340.078461,112.401939 335.942657,104.340988 
	C336.016052,103.988472 335.988342,104.029366 335.988342,104.029366 
	C347.781097,113.571091 360.221985,122.432831 368.837463,135.666290 
z"/>
<path fill="#FC9B2B" opacity="1.000000" stroke="none" 
	d="
M128.000000,252.000000 
	C130.880585,245.895248 136.901154,243.895111 142.370132,241.439529 
	C152.780807,236.765121 163.680984,234.581741 175.242157,234.891129 
	C191.383392,235.323074 207.572083,234.430710 223.688049,235.201157 
	C234.342041,235.710480 244.888535,238.262848 255.516464,239.644272 
	C258.828186,240.074753 262.501434,240.468094 265.573914,239.498795 
	C276.305878,236.113098 287.143250,234.647964 298.403534,234.909225 
	C313.989594,235.270813 329.590973,234.916214 345.184540,235.033295 
	C353.721375,235.097397 362.255280,235.574081 370.791809,235.620636 
	C371.521790,235.624619 372.261810,233.785828 373.303345,232.549896 
	C380.397034,236.988464 387.021790,241.941513 394.018372,246.297333 
	C400.800018,250.519348 408.207886,252.580414 416.277374,250.071854 
	C419.533173,249.059723 422.255219,247.516144 421.659027,243.570999 
	C421.113220,239.959320 417.425293,237.973892 413.353333,238.725464 
	C406.192169,240.047211 393.021118,233.977554 390.372131,228.017227 
	C397.746368,232.305664 404.916168,235.940765 413.556885,235.003647 
	C421.557129,234.135971 423.989044,230.278519 421.211426,223.047974 
	C422.314514,223.022186 423.050110,223.014999 423.785736,223.007828 
	C428.295105,240.433411 429.350769,258.194489 428.905365,276.960541 
	C428.624695,280.200806 428.381683,282.578247 428.078705,285.333405 
	C427.968018,286.472687 427.917297,287.234253 427.575958,288.138947 
	C426.050201,287.836426 424.355530,287.760437 423.652618,286.886627 
	C418.069489,279.945709 412.873352,272.686615 407.152344,265.865814 
	C403.343781,261.325104 398.326965,258.515747 392.093323,258.451355 
	C387.724548,258.406250 383.334106,257.835846 378.996490,258.132141 
	C374.579803,258.433777 370.215973,259.509216 365.539551,260.072418 
	C349.596313,243.758224 330.425415,236.253799 308.076447,237.209885 
	C297.115021,237.678833 286.710876,240.767853 276.809448,245.761688 
	C274.726044,245.137207 272.861511,244.532379 271.000397,244.542709 
	C265.618652,244.572571 260.238251,244.989136 254.857452,244.986221 
	C250.535446,244.983887 246.057526,242.476028 241.663162,245.898270 
	C228.965164,239.525848 215.882828,236.464249 202.012329,237.144287 
	C190.198410,237.723526 179.394836,241.722656 168.876923,246.935303 
	C167.481583,246.077698 166.306549,245.130493 165.110840,245.103653 
	C158.937881,244.965012 152.759583,245.054077 146.583328,245.092834 
	C146.105682,245.095825 145.612701,245.278992 145.155136,245.452866 
	C139.433716,247.627243 133.717529,249.815384 128.000000,252.000000 
z"/>
<path fill="#FFCD44" opacity="1.000000" stroke="none" 
	d="
M193.842300,99.945274 
	C196.115463,98.630409 198.259460,96.975647 200.682373,96.054863 
	C218.801910,89.168877 229.553024,76.991150 229.413254,56.783340 
	C229.410202,56.339920 229.684540,55.894569 229.849426,55.388927 
	C236.920715,61.650406 242.836472,78.291908 244.268021,96.467384 
	C252.616638,88.876465 257.044189,79.961563 255.978409,69.483604 
	C254.986023,59.727180 252.163864,50.156883 250.124725,40.397064 
	C250.231003,40.419033 251.441635,40.535301 252.559784,40.920231 
	C276.319336,49.099510 287.493896,64.249893 288.852875,90.097206 
	C288.975128,92.422256 289.008240,94.751976 288.571960,97.539749 
	C272.614655,98.333313 257.167358,98.632538 241.722000,99.011375 
	C230.437927,99.288139 219.157501,99.714844 207.873260,99.982834 
	C203.199219,100.093826 198.519455,99.965019 193.842300,99.945274 
z"/>
<path fill="#E72C22" opacity="1.000000" stroke="none" 
	d="
M343.182770,454.070312 
	C326.426483,464.419495 308.096222,470.636841 288.815430,473.865479 
	C249.982025,480.368225 213.072784,474.432678 178.327820,455.050842 
	C180.161377,453.941254 181.994110,453.085449 183.836838,453.063385 
	C194.625687,452.934174 205.417572,453.060150 216.206558,452.936005 
	C217.854630,452.917023 219.492905,452.045868 221.493439,451.678284 
	C224.277939,452.853729 226.666031,454.020416 229.137497,454.970093 
	C252.648499,464.004852 275.587341,462.334076 298.112579,451.580872 
	C299.742737,452.307343 301.258698,452.936523 302.781403,452.953247 
	C311.517700,453.049255 320.257843,452.881195 328.992035,453.047485 
	C333.727081,453.137634 338.452820,453.713531 343.182770,454.070312 
z"/>
<path fill="#FFC841" opacity="1.000000" stroke="none" 
	d="
M193.525177,100.042145 
	C198.519455,99.965019 203.199219,100.093826 207.873260,99.982834 
	C219.157501,99.714844 230.437927,99.288139 241.722000,99.011375 
	C257.167358,98.632538 272.614655,98.333313 288.529602,98.000183 
	C289.493225,99.560913 289.988281,101.121422 290.842896,103.815201 
	C299.971008,97.040520 299.641693,85.922905 304.922333,77.409348 
	C305.317444,79.534210 305.650970,81.295181 305.971741,83.058472 
	C307.361877,90.699356 311.324371,96.098663 318.351501,99.956268 
	C322.949707,102.480499 326.540070,106.840622 330.224060,110.691391 
	C315.463257,111.668243 301.064423,112.445618 286.656342,112.969269 
	C265.428802,113.740784 244.196030,114.378433 222.962921,114.983238 
	C208.019638,115.408882 193.072113,115.685188 178.126480,116.028175 
	C183.153671,110.731789 188.180862,105.435402 193.525177,100.042145 
z"/>
<path fill="#FFC33E" opacity="1.000000" stroke="none" 
	d="
M177.855804,116.233475 
	C193.072113,115.685188 208.019638,115.408882 222.962921,114.983238 
	C244.196030,114.378433 265.428802,113.740784 286.656342,112.969269 
	C301.064423,112.445618 315.463257,111.668243 330.308044,111.006775 
	C332.263092,113.895554 333.776337,116.781883 335.365540,119.985931 
	C334.329102,120.865860 333.242798,121.851273 332.100006,121.921814 
	C324.504700,122.390617 316.900177,122.770142 309.293213,122.977753 
	C294.211609,123.389374 279.123230,123.566360 264.043640,124.033577 
	C246.339615,124.582130 228.639618,125.279510 210.942352,126.019791 
	C197.783035,126.570244 184.630859,127.291794 171.027832,127.896385 
	C172.915146,124.050011 175.250137,120.244392 177.855804,116.233475 
z"/>
<path fill="#F05E25" opacity="1.000000" stroke="none" 
	d="
M423.263123,352.135284 
	C421.086975,358.288391 418.910828,364.441498 416.000671,370.812561 
	C410.675110,370.795532 406.084930,370.401886 401.491760,370.363068 
	C394.725494,370.305847 387.957306,370.533295 381.189545,370.580170 
	C375.064819,370.622589 368.938751,370.646423 362.814697,370.568115 
	C355.063812,370.469025 347.314301,370.258331 339.397247,369.760162 
	C338.893158,366.839355 338.556030,364.254181 338.369324,362.822418 
	C346.618561,357.241852 354.233398,352.090485 362.327759,346.958801 
	C380.719421,346.985657 398.631744,346.954956 416.543488,347.044434 
	C418.983490,347.056610 421.420441,347.669495 423.870850,348.357605 
	C423.676270,349.852386 423.469696,350.993835 423.263123,352.135284 
z"/>
<path fill="#FEAF35" opacity="1.000000" stroke="none" 
	d="
M102.624207,206.090744 
	C108.040833,195.907776 113.457458,185.724823 119.549088,175.274445 
	C145.970078,174.338013 171.717026,173.703278 197.461426,172.977142 
	C204.335510,172.783264 211.201706,172.309845 218.367081,172.001221 
	C219.110046,172.388107 219.557480,172.738541 219.973755,173.440735 
	C219.243256,175.069366 218.780060,176.577484 217.799423,177.578888 
	C215.068069,180.368073 214.394211,183.386597 215.599152,186.945557 
	C213.335358,186.902649 211.509003,186.928406 209.701950,186.754105 
	C196.937866,185.522964 184.198227,183.941620 171.409546,183.094833 
	C162.094421,182.478043 153.555191,185.488358 145.598724,191.017181 
	C138.183701,195.035934 130.718307,198.448822 124.175415,203.146530 
	C117.209190,208.148163 110.223457,208.188614 102.624207,206.090744 
z"/>
<path fill="#F05E25" opacity="1.000000" stroke="none" 
	d="
M102.627838,370.120453 
	C100.584007,364.582397 98.540176,359.044342 96.239334,352.889099 
	C95.900894,350.973907 95.819466,349.675903 96.025635,348.021118 
	C98.093658,347.442902 99.873505,347.034668 101.654602,347.029144 
	C117.782700,346.979370 133.911255,347.041962 150.038956,346.948578 
	C152.128815,346.936493 154.214630,346.225586 156.592041,345.993347 
	C163.302841,350.527161 169.764130,354.849121 176.107513,359.337738 
	C177.236099,360.136322 178.594025,361.628998 178.590317,362.797180 
	C178.582626,365.216492 177.730789,367.633148 176.743469,370.035706 
	C151.716522,370.053833 127.172180,370.087128 102.627838,370.120453 
z"/>
<path fill="#FEAF35" opacity="1.000000" stroke="none" 
	d="
M397.086578,164.826172 
	C401.041779,170.979721 404.996979,177.133255 408.529236,183.641235 
	C393.692719,184.661957 379.284851,185.522049 364.864105,185.945724 
	C346.580292,186.482925 328.286072,186.665634 309.858215,186.685440 
	C308.119354,183.346481 306.518616,180.323303 305.293518,177.197083 
	C309.307159,176.658783 310.104340,174.084961 310.696960,171.011795 
	C323.540710,170.671265 335.932281,170.350403 348.322906,169.995026 
	C359.222626,169.682419 370.122314,169.360413 381.018555,168.949799 
	C382.058624,168.910614 383.073822,168.211533 384.100586,167.818817 
	C384.899109,167.432022 385.697662,167.045212 387.005554,166.333221 
	C390.705444,165.614090 393.896027,165.220139 397.086578,164.826172 
z"/>
<path fill="#EE5424" opacity="1.000000" stroke="none" 
	d="
M102.705215,370.490906 
	C127.172180,370.087128 151.716522,370.053833 176.780518,370.498657 
	C177.528381,377.984833 177.756592,384.992859 177.517120,392.000458 
	C158.265900,392.000061 139.481720,391.927917 120.699913,392.106049 
	C118.713867,392.124878 116.741753,393.613251 114.763184,394.419830 
	C110.769653,386.567017 106.776123,378.714172 102.705215,370.490906 
z"/>
<path fill="#FFB538" opacity="1.000000" stroke="none" 
	d="
M218.071533,171.964752 
	C211.201706,172.309845 204.335510,172.783264 197.461426,172.977142 
	C171.717026,173.703278 145.970078,174.338013 119.780930,175.011353 
	C123.683449,169.444260 128.029099,163.872849 132.668045,158.145447 
	C143.445038,157.987823 153.934906,158.215469 164.411041,157.933105 
	C181.969742,157.459839 199.519150,156.646271 217.074295,156.027954 
	C218.535141,155.976501 220.009918,156.320023 221.608673,157.083435 
	C220.451675,159.450577 219.164230,161.214310 217.569580,163.168472 
	C214.764633,166.487732 215.990799,169.266418 218.071533,171.964752 
z"/>
<path fill="#F9BDB4" opacity="1.000000" stroke="none" 
	d="
M95.738037,348.377899 
	C95.819466,349.675903 95.900894,350.973907 95.953568,352.661987 
	C83.892212,352.748840 75.377167,345.831726 68.139915,337.373596 
	C59.234081,326.965393 54.354752,314.925110 54.810860,300.793152 
	C55.392094,282.784271 68.884262,272.728882 86.015633,278.105804 
	C87.122665,278.453278 88.242676,278.759430 89.772156,279.140564 
	C90.511185,281.870422 90.834694,284.544586 91.154945,287.849518 
	C91.081238,288.639648 91.010788,288.799011 90.630646,288.807251 
	C84.704765,283.931366 78.467667,283.533844 75.609108,288.253876 
	C73.786705,291.263062 72.429413,294.938507 72.140976,298.421021 
	C71.223518,309.498352 74.453682,319.752380 80.164360,329.129089 
	C83.174217,334.071136 86.831001,338.669891 93.305534,340.241577 
	C94.269058,343.144775 95.003548,345.761353 95.738037,348.377899 
z"/>
<path fill="#EC4823" opacity="1.000000" stroke="none" 
	d="
M114.831558,394.751953 
	C116.741753,393.613251 118.713867,392.124878 120.699913,392.106049 
	C139.481720,391.927917 158.265900,392.000061 177.673477,392.351959 
	C180.663315,400.090332 183.029083,407.476837 184.902847,414.902466 
	C169.653610,414.961090 154.895737,414.912048 140.139664,415.053162 
	C136.873886,415.084351 133.614532,415.787903 130.352203,416.181885 
	C125.201447,409.149292 120.050690,402.116669 114.831558,394.751953 
z"/>
<path fill="#FFB538" opacity="1.000000" stroke="none" 
	d="
M384.047180,167.467331 
	C383.073822,168.211533 382.058624,168.910614 381.018555,168.949799 
	C370.122314,169.360413 359.222626,169.682419 348.322906,169.995026 
	C335.932281,170.350403 323.540710,170.671265 310.624023,170.676956 
	C309.743164,169.563538 309.387817,168.780304 308.967682,167.659851 
	C305.259644,163.551056 301.616394,159.779480 297.973175,156.007919 
	C299.391052,155.339081 300.765137,154.225769 302.234680,154.080902 
	C307.643280,153.547699 313.079285,153.185898 318.512695,153.031357 
	C333.223206,152.612930 347.939178,152.386353 362.649689,151.967621 
	C367.088837,151.841248 371.517181,151.335007 376.396606,151.004456 
	C379.226410,156.376038 381.610107,161.745941 384.047180,167.467331 
z"/>
<path fill="#F9BDB4" opacity="1.000000" stroke="none" 
	d="
M423.638611,352.127289 
	C423.469696,350.993835 423.676270,349.852386 423.994537,347.988403 
	C425.084961,343.518616 426.063660,339.771301 427.387573,335.985443 
	C428.421661,335.512146 429.278229,335.217194 429.774414,334.621857 
	C438.755188,323.847931 442.868011,311.412109 441.935791,297.439178 
	C441.341125,288.525665 437.319153,285.077484 428.138641,284.955719 
	C428.381683,282.578247 428.624695,280.200806 428.930420,277.431091 
	C434.412048,277.394745 440.085968,276.856903 445.190887,278.313416 
	C453.094452,280.568481 457.311584,287.263580 458.636993,294.914734 
	C463.064575,320.474060 445.208160,345.027618 425.496399,351.945404 
	C425.038361,352.106140 424.509766,352.065826 423.638611,352.127289 
z"/>
<path fill="#EE5424" opacity="1.000000" stroke="none" 
	d="
M339.564209,370.095825 
	C347.314301,370.258331 355.063812,370.469025 362.814697,370.568115 
	C368.938751,370.646423 375.064819,370.622589 381.189545,370.580170 
	C387.957306,370.533295 394.725494,370.305847 401.491760,370.363068 
	C406.084930,370.401886 410.675110,370.795532 415.742615,371.052856 
	C413.718903,376.601379 411.219147,382.127563 407.966339,387.838409 
	C402.103333,387.749329 396.991730,387.224182 391.883789,387.257599 
	C383.025177,387.315491 374.170288,387.813324 365.311096,387.950470 
	C356.837830,388.081665 348.361115,387.988586 339.845947,387.527618 
	C339.725372,381.406036 339.644806,375.750946 339.564209,370.095825 
z"/>
<path fill="#FEA932" opacity="1.000000" stroke="none" 
	d="
M309.996338,187.001221 
	C328.286072,186.665634 346.580292,186.482925 364.864105,185.945724 
	C379.284851,185.522049 393.692719,184.661957 408.573914,183.992218 
	C411.459717,189.034698 413.877930,194.080673 415.884277,199.534302 
	C404.727325,200.295074 393.974976,200.519913 383.244293,201.127213 
	C381.449890,201.228775 379.749481,202.990356 377.741821,203.887939 
	C376.980713,203.534012 376.483368,203.277039 375.785095,202.745331 
	C363.526917,194.242523 350.214874,190.982498 335.678345,191.935501 
	C326.457275,192.540024 317.201202,192.609512 308.009888,192.571808 
	C308.704773,190.483521 309.350555,188.742371 309.996338,187.001221 
z"/>
<path fill="#EA3D22" opacity="1.000000" stroke="none" 
	d="
M130.515594,416.498291 
	C133.614532,415.787903 136.873886,415.084351 140.139664,415.053162 
	C154.895737,414.912048 169.653610,414.961090 185.122589,415.148224 
	C190.297180,421.876587 194.760025,428.398346 198.810867,434.980774 
	C195.815262,435.148468 193.232300,435.324768 190.647949,435.348938 
	C184.169922,435.409546 177.691208,435.393677 171.212845,435.423462 
	C167.161697,435.442108 163.093491,435.275299 159.065994,435.600739 
	C156.614136,435.798828 154.225113,436.774841 151.807861,437.401428 
	C144.764877,430.539185 137.721924,423.676910 130.515594,416.498291 
z"/>
<path fill="#EA3D22" opacity="1.000000" stroke="none" 
	d="
M385.198090,420.426727 
	C379.330536,426.169159 373.463013,431.911621 367.181580,437.362793 
	C365.077148,436.714355 363.388824,436.060028 361.695831,436.047638 
	C349.555450,435.958496 337.412994,436.081360 325.274231,435.915741 
	C323.355316,435.889526 321.451630,434.748047 319.705139,433.859131 
	C323.557526,428.391052 327.245667,423.186035 331.406616,417.986908 
	C347.451752,417.995239 363.025391,417.902313 378.595093,418.108063 
	C380.805939,418.137268 382.997559,419.617859 385.198090,420.426727 
z"/>
<path fill="#EC4523" opacity="1.000000" stroke="none" 
	d="
M385.496521,420.250732 
	C382.997559,419.617859 380.805939,418.137268 378.595093,418.108063 
	C363.025391,417.902313 347.451752,417.995239 331.448364,417.623810 
	C333.072845,412.171783 335.128326,407.088745 337.640961,402.004272 
	C356.050018,402.001831 374.002045,401.965057 391.953583,402.048218 
	C394.049072,402.057922 396.141479,402.730225 398.235321,403.095337 
	C394.088531,408.755127 389.941742,414.414917 385.496521,420.250732 
z"/>
<path fill="#ED4D23" opacity="1.000000" stroke="none" 
	d="
M398.534973,402.934235 
	C396.141479,402.730225 394.049072,402.057922 391.953583,402.048218 
	C374.002045,401.965057 356.050018,402.001831 337.636169,401.614594 
	C338.078156,396.815643 338.982025,392.404846 339.885895,387.994080 
	C348.361115,387.988586 356.837830,388.081665 365.311096,387.950470 
	C374.170288,387.813324 383.025177,387.315491 391.883789,387.257599 
	C396.991730,387.224182 402.103333,387.749329 407.688171,388.040039 
	C405.053589,392.962402 401.944122,397.867767 398.534973,402.934235 
z"/>
<path fill="#E93321" opacity="1.000000" stroke="none" 
	d="
M151.988388,437.674164 
	C154.225113,436.774841 156.614136,435.798828 159.065994,435.600739 
	C163.093491,435.275299 167.161697,435.442108 171.212845,435.423462 
	C177.691208,435.393677 184.169922,435.409546 190.647949,435.348938 
	C193.232300,435.324768 195.815262,435.148468 199.099472,435.131226 
	C206.911957,440.670319 214.023834,446.119598 221.135712,451.568848 
	C219.492905,452.045868 217.854630,452.917023 216.206558,452.936005 
	C205.417572,453.060150 194.625687,452.934174 183.836838,453.063385 
	C181.994110,453.085449 180.161377,453.941254 178.131836,454.770294 
	C169.349396,449.401428 160.759155,443.674164 151.988388,437.674164 
z"/>
<path fill="#E93321" opacity="1.000000" stroke="none" 
	d="
M319.540924,434.122253 
	C321.451630,434.748047 323.355316,435.889526 325.274231,435.915741 
	C337.412994,436.081360 349.555450,435.958496 361.695831,436.047638 
	C363.388824,436.060028 365.077148,436.714355 366.864136,437.455811 
	C359.265533,443.218628 351.570465,448.597198 343.529053,454.023010 
	C338.452820,453.713531 333.727081,453.137634 328.992035,453.047485 
	C320.257843,452.881195 311.517700,453.049255 302.781403,452.953247 
	C301.258698,452.936523 299.742737,452.307343 298.374664,451.350769 
	C305.530762,445.201111 312.535858,439.661682 319.540924,434.122253 
z"/>
<path fill="#FFD34A" opacity="1.000000" stroke="none" 
	d="
M102.388039,206.307251 
	C110.223457,208.188614 117.209190,208.148163 124.175415,203.146530 
	C130.718307,198.448822 138.183701,195.035934 145.979721,191.183838 
	C152.372086,191.873398 158.041382,192.333603 163.674744,193.069214 
	C165.175949,193.265228 166.567001,194.304855 167.613312,194.984253 
	C157.099472,197.149734 148.248383,201.945038 139.998245,207.998260 
	C140.000000,208.000000 139.996613,207.995590 139.656067,208.023621 
	C137.871902,209.030212 136.428299,210.008759 134.656006,211.028748 
	C133.226547,211.727112 132.125793,212.384048 130.701584,213.052155 
	C129.580643,213.705002 128.783173,214.346680 127.691940,215.019241 
	C126.932495,215.366745 126.466827,215.683365 125.626480,216.034637 
	C116.403549,219.913132 107.649742,221.307938 99.190567,215.064102 
	C100.177666,212.217316 101.164764,209.370529 102.388039,206.307251 
z"/>
<path fill="#FEA12D" opacity="1.000000" stroke="none" 
	d="
M378.005615,203.984894 
	C379.749481,202.990356 381.449890,201.228775 383.244293,201.127213 
	C393.974976,200.519913 404.727325,200.295074 415.980164,199.904633 
	C418.917328,207.326965 421.346741,214.786606 423.780945,222.627045 
	C423.050110,223.014999 422.314514,223.022186 420.829895,223.027130 
	C418.002350,222.975815 415.888306,223.152039 413.852631,222.831024 
	C409.547180,222.152084 404.657379,222.265808 401.127747,220.168610 
	C393.062439,215.376404 385.670837,209.450378 378.005615,203.984894 
z"/>
<path fill="#FEA932" opacity="1.000000" stroke="none" 
	d="
M99.076683,215.411087 
	C107.649742,221.307938 116.403549,219.913132 125.576477,216.378937 
	C119.815247,221.451111 113.693832,225.866180 105.251137,222.319504 
	C104.127151,221.847321 102.431732,222.735382 101.000946,222.993530 
	C99.964310,222.664825 98.927681,222.336136 97.541481,222.009796 
	C97.782211,219.927460 98.372505,217.842773 99.076683,215.411087 
z"/>
<path fill="#FFBA3A" opacity="1.000000" stroke="none" 
	d="
M397.001068,164.501892 
	C393.896027,165.220139 390.705444,165.614090 387.170929,166.031372 
	C385.964081,160.784561 385.101227,155.514450 384.127838,149.569351 
	C389.465454,153.604492 392.992676,159.080536 397.001068,164.501892 
z"/>
<path fill="#FFBF3C" opacity="1.000000" stroke="none" 
	d="
M336.033020,103.970467 
	C335.874969,103.829193 335.699982,103.705917 335.524994,103.582642 
	C335.628876,103.625732 335.732727,103.668823 335.912476,103.870636 
	C335.988342,104.029366 336.016052,103.988472 336.033020,103.970467 
z"/>
<path fill="#FFE47D" opacity="1.000000" stroke="none" 
	d="
M297.561157,155.956512 
	C301.616394,159.779480 305.259644,163.551056 308.499084,167.661011 
	C303.707916,168.010315 299.320526,168.021240 294.599487,167.882568 
	C289.512909,164.796204 285.226868,166.835953 280.537964,168.976013 
	C276.088379,168.314331 272.051605,167.658936 268.039001,166.657928 
	C269.134216,164.572571 270.205292,162.832809 271.276367,161.093033 
	C279.247986,156.108871 287.569977,152.872147 297.561157,155.956512 
z"/>
<path fill="#FFE47D" opacity="1.000000" stroke="none" 
	d="
M217.876801,162.978058 
	C219.164230,161.214310 220.451675,159.450577 221.890930,157.399704 
	C232.487854,148.167938 246.582779,151.450516 256.624542,161.221466 
	C257.348389,162.794815 257.701172,163.870407 257.760315,165.249741 
	C253.281570,165.720078 249.096481,165.886703 244.537689,165.992661 
	C239.910172,163.585175 235.536163,163.230209 230.758820,164.821289 
	C226.286987,163.994858 222.081894,163.486465 217.876801,162.978058 
z"/>
<path fill="#FEAF35" opacity="1.000000" stroke="none" 
	d="
M258.053925,164.946014 
	C257.701172,163.870407 257.348389,162.794815 256.911713,161.387238 
	C261.314301,161.046921 265.800781,161.038574 270.781830,161.061615 
	C270.205292,162.832809 269.134216,164.572571 267.758728,166.891083 
	C265.817230,171.868027 263.670349,176.209457 265.944244,181.413757 
	C266.283844,183.200012 266.622101,184.615524 266.590637,186.095184 
	C263.281769,190.192749 263.655029,194.545609 264.555115,198.993500 
	C262.411652,198.998398 260.696747,199.000366 258.999268,198.581696 
	C259.345856,196.227356 260.081970,194.255066 259.903229,192.369537 
	C259.668488,189.893402 258.713013,187.485611 258.188965,184.708160 
	C258.910004,182.278793 259.509583,180.189697 260.364380,177.790741 
	C261.516083,172.944046 261.011719,168.693939 258.053925,164.946014 
z"/>
<path fill="#FEA12D" opacity="1.000000" stroke="none" 
	d="
M258.981812,199.002350 
	C260.696747,199.000366 262.411652,198.998398 264.699280,199.316803 
	C268.416626,203.559769 270.950684,208.275558 274.821289,211.255020 
	C286.071136,219.914841 299.912720,220.031265 313.201935,220.758759 
	C323.916870,221.345322 334.719543,220.162903 345.485107,220.104797 
	C348.320343,220.089493 351.162323,221.332428 354.001221,221.997574 
	C352.506836,222.997925 351.095734,224.679901 349.502838,224.874573 
	C344.097778,225.535126 338.622894,225.602646 333.188080,226.057129 
	C331.971039,226.158920 330.831787,227.217255 329.616577,227.310120 
	C325.702393,227.609222 321.769958,227.684479 317.842957,227.781052 
	C317.411530,227.791641 316.848694,227.087692 316.550537,227.210388 
	C309.551025,230.090195 302.804718,225.498383 295.629974,226.739822 
	C288.686340,227.941254 281.365997,226.806900 274.222626,227.044571 
	C258.006104,227.584106 241.800461,228.458710 225.583191,228.967133 
	C209.831924,229.460953 194.067169,229.529373 178.316666,230.040878 
	C163.595078,230.518982 148.886124,231.378586 134.166550,231.936951 
	C132.520874,231.999374 130.842209,231.192307 129.244537,230.086456 
	C133.673843,226.703278 138.088669,224.101532 142.391769,221.326523 
	C157.202957,211.775024 172.888306,208.156799 190.594025,211.687302 
	C202.018311,213.965286 213.898605,214.820282 225.568451,214.774063 
	C238.771576,214.721771 251.221634,211.388885 258.981812,199.002350 
z"/>
<path fill="#FD941F" opacity="1.000000" stroke="none" 
	d="
M354.383453,222.003891 
	C351.162323,221.332428 348.320343,220.089493 345.485107,220.104797 
	C334.719543,220.162903 323.916870,221.345322 313.201935,220.758759 
	C299.912720,220.031265 286.071136,219.914841 274.821289,211.255020 
	C270.950684,208.275558 268.416626,203.559769 265.127808,199.313873 
	C263.655029,194.545609 263.281769,190.192749 266.733307,186.400970 
	C271.150787,190.452209 275.055878,194.261795 279.008667,198.413971 
	C281.579712,200.753235 283.859131,203.961395 286.670502,204.527359 
	C296.484833,206.503159 306.445465,208.198837 316.422272,208.789795 
	C325.626740,209.335007 334.970428,207.615707 344.164246,208.226685 
	C351.098572,208.687500 357.919128,211.152481 364.737213,212.929291 
	C367.571136,213.667816 370.266846,214.936707 373.017456,215.981598 
	C373.009491,215.998779 373.035156,215.964569 373.073395,216.314606 
	C374.080811,217.101669 375.049957,217.538681 376.010803,217.987244 
	C376.002441,217.998779 376.023743,217.974319 376.066467,218.322266 
	C377.073639,219.113068 378.038086,219.555908 379.223328,220.099152 
	C379.728973,220.379440 379.928253,220.627960 380.077820,221.297409 
	C381.084930,222.091522 382.056244,222.533325 383.309052,223.120804 
	C384.733765,224.162476 385.876923,225.058487 387.062531,226.306107 
	C388.077209,227.098938 389.049500,227.540161 390.015472,227.988266 
	C390.009186,227.995148 390.020660,227.972992 390.020660,227.972992 
	C393.021118,233.977554 406.192169,240.047211 413.353333,238.725464 
	C417.425293,237.973892 421.113220,239.959320 421.659027,243.570999 
	C422.255219,247.516144 419.533173,249.059723 416.277374,250.071854 
	C408.207886,252.580414 400.800018,250.519348 394.018372,246.297333 
	C387.021790,241.941513 380.397034,236.988464 373.304810,232.149261 
	C366.921906,228.671295 360.843781,225.340759 354.383453,222.003891 
z"/>
<path fill="#FD941F" opacity="1.000000" stroke="none" 
	d="
M258.999268,198.581696 
	C251.221634,211.388885 238.771576,214.721771 225.568451,214.774063 
	C213.898605,214.820282 202.018311,213.965286 190.594025,211.687302 
	C172.888306,208.156799 157.202957,211.775024 142.391769,221.326523 
	C138.088669,224.101532 133.673843,226.703278 129.153549,229.689362 
	C123.520187,231.758453 118.135269,233.981812 112.529900,235.101883 
	C109.522354,235.702835 105.923820,234.967621 102.965469,233.848236 
	C97.206276,231.669083 96.675117,228.413422 100.845139,223.308319 
	C102.431732,222.735382 104.127151,221.847321 105.251137,222.319504 
	C113.693832,225.866180 119.815247,221.451111 125.951157,216.344284 
	C126.466827,215.683365 126.932495,215.366745 128.045746,215.020920 
	C129.470566,214.341476 130.247818,213.691238 131.025055,213.041000 
	C132.125793,212.384048 133.226547,211.727112 135.024933,211.031067 
	C137.147247,209.993164 138.571930,208.994370 139.996613,207.995590 
	C139.996613,207.995590 140.000000,208.000000 140.376892,207.997375 
	C144.087387,206.539886 147.331772,204.810089 150.774979,203.693100 
	C156.256531,201.914917 161.897125,199.169266 167.423279,199.275940 
	C180.787445,199.533936 194.136673,201.074005 207.468506,202.343094 
	C218.769989,203.418900 230.024750,204.060181 240.833145,199.797241 
	C242.871292,198.993393 244.322296,196.700821 246.350922,194.935730 
	C250.460892,191.533630 254.264175,188.291031 258.067474,185.048431 
	C258.713013,187.485611 259.668488,189.893402 259.903229,192.369537 
	C260.081970,194.255066 259.345856,196.227356 258.999268,198.581696 
z"/>
<path fill="#F78128" opacity="1.000000" stroke="none" 
	d="
M90.940338,288.958344 
	C91.010788,288.799011 91.081238,288.639648 91.273605,288.248230 
	C94.062195,286.107361 96.728859,284.198608 100.164749,282.144653 
	C114.259178,281.999908 127.584373,282.000275 140.899216,282.391663 
	C139.860214,289.188568 138.831573,295.594421 137.404526,301.936279 
	C135.064102,301.581512 133.123337,301.049011 131.179871,301.038879 
	C117.593147,300.968231 104.005859,301.005615 90.331558,300.603821 
	C90.476349,296.452209 90.708344,292.705292 90.940338,288.958344 
z"/>
<path fill="#F88829" opacity="1.000000" stroke="none" 
	d="
M140.909576,282.000671 
	C127.584373,282.000275 114.259178,281.999908 100.464828,281.998535 
	C105.797577,275.428345 111.599464,268.859161 118.169113,262.145203 
	C127.986443,262.000641 137.036819,261.939636 146.084885,262.056519 
	C147.756210,262.078094 149.418228,262.818542 150.950729,263.529053 
	C147.514465,269.887512 144.212021,275.944092 140.909576,282.000671 
z"/>
<path fill="#FA952A" opacity="1.000000" stroke="none" 
	d="
M151.084549,263.227203 
	C149.418228,262.818542 147.756210,262.078094 146.084885,262.056519 
	C137.036819,261.939636 127.986443,262.000641 118.468147,261.999573 
	C119.904442,259.863922 121.809448,257.729095 124.186752,255.268082 
	C125.772598,253.961288 126.886147,252.980652 127.999695,252.000000 
	C127.999695,252.000000 128.000000,252.000000 128.000000,252.000000 
	C133.717529,249.815384 139.433716,247.627243 145.155136,245.452866 
	C145.612701,245.278992 146.105682,245.095825 146.583328,245.092834 
	C152.759583,245.054077 158.937881,244.965012 165.110840,245.103653 
	C166.306549,245.130493 167.481583,246.077698 168.678711,247.189514 
	C162.822357,252.928177 156.953445,258.077698 151.084549,263.227203 
z"/>
<path fill="#FC9B2B" opacity="1.000000" stroke="none" 
	d="
M127.635445,252.004150 
	C126.886147,252.980652 125.772598,253.961288 124.329681,254.970963 
	C125.090599,254.002777 126.180893,253.005539 127.635445,252.004150 
z"/>
<path fill="#FFC5BA" opacity="1.000000" stroke="none" 
	d="
M150.950729,263.529053 
	C156.953445,258.077698 162.822357,252.928177 168.889465,247.524475 
	C179.394836,241.722656 190.198410,237.723526 202.012329,237.144287 
	C215.882828,236.464249 228.965164,239.525848 241.877594,246.157227 
	C248.347900,250.868408 254.256531,255.240372 259.865479,259.390625 
	C265.596710,254.940262 271.313293,250.501297 277.029877,246.062317 
	C286.710876,240.767853 297.115021,237.678833 308.076447,237.209885 
	C330.425415,236.253799 349.596313,243.758224 365.643188,260.388641 
	C374.149414,270.516602 378.975494,281.651459 381.081726,294.473389 
	C380.710541,300.627930 380.376923,306.316559 379.759430,311.788147 
	C365.544373,264.215973 301.931427,243.899887 259.455688,285.458801 
	C255.630768,282.299255 252.012787,278.837372 247.937439,276.042389 
	C232.396362,265.383942 215.310822,260.962677 196.509399,263.977905 
	C170.532486,268.143860 152.004807,281.887909 141.719238,306.356750 
	C141.148193,307.715240 139.912689,308.794434 138.726135,309.706177 
	C138.244858,306.939240 138.023911,304.469788 137.802948,302.000305 
	C138.831573,295.594421 139.860214,289.188568 140.899231,282.391663 
	C144.212021,275.944092 147.514465,269.887512 150.950729,263.529053 
z"/>
<path fill="#F88829" opacity="1.000000" stroke="none" 
	d="
M381.119293,294.007507 
	C378.975494,281.651459 374.149414,270.516602 365.932617,260.562073 
	C370.215973,259.509216 374.579803,258.433777 378.996490,258.132141 
	C383.334106,257.835846 387.724548,258.406250 392.093323,258.451355 
	C398.326965,258.515747 403.343781,261.325104 407.152344,265.865814 
	C412.873352,272.686615 418.069489,279.945709 423.652618,286.886627 
	C424.355530,287.760437 426.050201,287.836426 427.629150,288.565308 
	C428.001648,290.563721 428.030396,292.278900 427.616272,293.996063 
	C411.822021,294.001221 396.470642,294.004364 381.119293,294.007507 
z"/>
<path fill="#FFD34A" opacity="1.000000" stroke="none" 
	d="
M387.020111,225.954498 
	C385.876923,225.058487 384.733765,224.162476 383.166077,222.835083 
	C381.841736,221.917496 380.941864,221.431305 380.041992,220.945099 
	C379.928253,220.627960 379.728973,220.379440 379.085358,219.810104 
	C377.825653,218.938538 376.924683,218.456436 376.023743,217.974319 
	C376.023743,217.974319 376.002441,217.998779 375.870880,217.700058 
	C374.837921,216.922424 373.936554,216.443497 373.035156,215.964569 
	C373.035156,215.964569 373.009491,215.998779 372.866364,215.679565 
	C367.143829,211.936676 361.564453,208.513016 356.264008,204.776154 
	C361.097473,204.507858 365.658569,204.711487 370.203430,204.523254 
	C372.148376,204.442703 374.059540,203.545959 375.986053,203.020081 
	C376.483368,203.277039 376.980713,203.534012 377.741821,203.887939 
	C385.670837,209.450378 393.062439,215.376404 401.127747,220.168610 
	C404.657379,222.265808 409.547180,222.152084 413.852631,222.831024 
	C415.888306,223.152039 418.002350,222.975815 420.462463,223.045746 
	C423.989044,230.278519 421.557129,234.135971 413.556885,235.003647 
	C404.916168,235.940765 397.746368,232.305664 390.372131,228.017227 
	C390.020660,227.972992 390.009186,227.995148 389.874146,227.700989 
	C388.832794,226.922699 387.926453,226.438599 387.020111,225.954498 
z"/>
<path fill="#FFA091" opacity="1.000000" stroke="none" 
	d="
M428.059143,293.994049 
	C428.030396,292.278900 428.001648,290.563721 427.919739,288.422211 
	C427.917297,287.234253 427.968018,286.472687 428.078705,285.333405 
	C437.319153,285.077484 441.341125,288.525665 441.935791,297.439178 
	C442.868011,311.412109 438.755188,323.847931 429.774414,334.621857 
	C429.278229,335.217194 428.421661,335.512146 427.346161,335.548096 
	C427.309113,330.766144 427.658722,326.382965 428.092255,321.591187 
	C428.137177,312.119720 428.098175,303.056885 428.059143,293.994049 
z"/>
<path fill="#FA952A" opacity="1.000000" stroke="none" 
	d="
M276.809448,245.761688 
	C271.313293,250.501297 265.596710,254.940262 259.865479,259.390625 
	C254.256531,255.240372 248.347900,250.868408 242.224854,246.237488 
	C246.057526,242.476028 250.535446,244.983887 254.857452,244.986221 
	C260.238251,244.989136 265.618652,244.572571 271.000397,244.542709 
	C272.861511,244.532379 274.726044,245.137207 276.809448,245.761688 
z"/>
<path fill="#FEDBD5" opacity="1.000000" stroke="none" 
	d="
M138.986481,310.003632 
	C139.912689,308.794434 141.148193,307.715240 141.719238,306.356750 
	C152.004807,281.887909 170.532486,268.143860 196.509399,263.977905 
	C215.310822,260.962677 232.396362,265.383942 247.937439,276.042389 
	C252.012787,278.837372 255.630768,282.299255 259.455688,285.458801 
	C301.931427,243.899887 365.544373,264.215973 379.771912,312.201416 
	C379.526947,315.491425 378.985687,318.151184 378.274109,321.109222 
	C374.804443,331.267273 368.789734,339.398224 361.848236,346.939087 
	C354.233398,352.090485 346.618561,357.241852 338.369324,362.822418 
	C338.556030,364.254181 338.893158,366.839355 339.397247,369.760193 
	C339.644806,375.750946 339.725372,381.406036 339.845947,387.527618 
	C338.982025,392.404846 338.078156,396.815643 337.179016,401.616089 
	C335.128326,407.088745 333.072845,412.171783 330.975586,417.617920 
	C327.245667,423.186035 323.557526,428.391052 319.705139,433.859131 
	C312.535858,439.661682 305.530762,445.201111 298.263580,450.970642 
	C275.587341,462.334076 252.648499,464.004852 229.137497,454.970093 
	C226.666031,454.020416 224.277939,452.853729 221.493439,451.678314 
	C214.023834,446.119598 206.911957,440.670319 199.511490,435.070557 
	C194.760025,428.398346 190.297180,421.876587 185.614594,415.109070 
	C183.029083,407.476837 180.663315,400.090332 178.141174,392.352356 
	C177.756592,384.992859 177.528381,377.984833 177.263107,370.513855 
	C177.730789,367.633148 178.582626,365.216492 178.590317,362.797180 
	C178.594025,361.628998 177.236099,360.136322 176.107513,359.337738 
	C169.764130,354.849121 163.302841,350.527161 156.428391,345.694427 
	C151.018494,337.475525 146.061981,329.710510 141.083786,321.549866 
	C140.370224,317.437378 139.678345,313.720490 138.986481,310.003632 
M294.422913,297.369415 
	C295.802673,296.537018 297.377838,295.914001 298.530548,294.838287 
	C306.130341,287.746094 314.276367,285.348724 323.779785,291.191528 
	C326.636536,292.947906 329.797150,292.817291 331.592651,289.634674 
	C333.386108,286.455750 331.022614,284.348114 328.677704,282.615387 
	C321.529602,277.333313 310.995117,277.928101 303.995728,284.768311 
	C300.070099,288.604614 297.219604,293.541107 294.037964,298.020935 
	C294.037964,298.020935 293.800507,298.090363 293.800507,298.090363 
	C293.800507,298.090363 293.950806,297.910461 294.422913,297.369415 
M196.443619,335.933929 
	C190.873657,336.495056 185.267838,336.839539 179.755981,337.751801 
	C178.142059,338.018921 176.795334,339.900421 175.326157,341.041992 
	C176.769104,342.280914 178.161545,344.514557 179.663528,344.590851 
	C187.165588,344.971710 194.705856,344.990845 202.209961,344.644440 
	C203.908218,344.566101 205.515900,342.525208 207.679733,341.032928 
	C205.219955,339.325104 203.624237,338.217194 202.898209,337.007202 
	C203.894745,337.015198 204.893585,337.071228 205.887482,337.023773 
	C215.760574,336.552490 223.472977,328.594086 223.450302,318.920135 
	C223.427002,308.990295 215.415771,300.997833 205.350998,300.863220 
	C195.166779,300.727020 186.952942,308.243530 186.584808,318.211029 
	C186.280930,326.438995 190.729477,331.864441 196.443619,335.933929 
M320.510773,334.642334 
	C329.484711,328.095215 332.077759,318.976593 327.401215,310.411316 
	C322.990479,302.332825 313.485962,298.779602 304.730255,301.935883 
	C296.515533,304.897156 291.840332,312.707947 292.939087,321.635284 
	C293.985718,330.139099 300.808228,336.029877 310.616821,337.752075 
	C309.431793,338.777893 308.246765,339.803711 306.372772,341.425934 
	C308.715088,342.831909 310.431183,344.707336 312.235168,344.796021 
	C319.401855,345.148315 326.609375,345.178070 333.770172,344.771179 
	C335.468445,344.674713 337.044128,342.420868 338.676178,341.159393 
	C336.940979,339.872070 335.375763,337.939117 333.436127,337.428436 
	C329.056488,336.275330 324.491791,335.825073 320.510773,334.642334 
M236.251511,421.553802 
	C252.413696,433.586670 273.759399,432.136078 286.907288,417.823578 
	C293.338013,411.027435 296.483765,402.979492 296.569611,392.788940 
	C271.846161,400.173767 247.532837,399.292633 222.724442,392.982941 
	C223.054520,404.909729 227.103394,414.044403 236.251511,421.553802 
M251.353424,349.837646 
	C248.102844,354.265198 248.603851,357.396362 253.317581,359.818420 
	C259.316925,362.901093 265.525269,362.925690 271.460785,359.705017 
	C276.866272,356.771973 276.832855,351.402405 271.341827,348.575531 
	C264.838074,345.227264 258.253021,345.465332 251.353424,349.837646 
M198.989899,275.726837 
	C198.328583,275.795013 197.660477,275.824036 197.007019,275.937500 
	C190.867462,277.003479 186.972534,279.979126 187.984467,283.251648 
	C189.851151,289.288483 194.442261,286.734558 198.349991,286.083191 
	C198.677734,286.028534 199.017853,286.025543 199.335907,285.938721 
	C207.156540,283.803741 213.335632,286.352997 218.295120,292.508728 
	C220.046448,294.682495 221.900879,296.773132 224.234131,299.521088 
	C222.073669,284.573639 213.129608,276.148834 198.989899,275.726837 
z"/>
<path fill="#F36B26" opacity="1.000000" stroke="none" 
	d="
M362.327759,346.958801 
	C368.789734,339.398224 374.804443,331.267273 378.783447,321.163330 
	C384.717163,321.198547 389.968567,321.633972 395.225861,321.724701 
	C406.151703,321.913208 417.080688,321.918945 428.008362,321.999817 
	C427.658722,326.382965 427.309113,330.766144 427.000916,335.586670 
	C426.063660,339.771301 425.084961,343.518616 423.982544,347.635071 
	C421.420441,347.669495 418.983490,347.056610 416.543488,347.044434 
	C398.631744,346.954956 380.719421,346.985657 362.327759,346.958801 
z"/>
<path fill="#FFD753" opacity="1.000000" stroke="none" 
	d="
M258.188965,184.708160 
	C254.264175,188.291031 250.460892,191.533630 245.964767,194.945450 
	C231.338608,200.175217 217.151154,199.430298 202.757141,197.535553 
	C191.250443,196.020889 179.839615,192.358063 168.008636,194.957184 
	C166.567001,194.304855 165.175949,193.265228 163.674744,193.069214 
	C158.041382,192.333603 152.372086,191.873398 146.335236,191.143311 
	C153.555191,185.488358 162.094421,182.478043 171.409546,183.094833 
	C184.198227,183.941620 196.937866,185.522964 209.701950,186.754105 
	C211.509003,186.928406 213.335358,186.902649 216.050385,186.975021 
	C220.270386,186.938095 223.592773,186.895645 227.344864,186.902893 
	C232.519241,185.605499 237.263931,184.258423 242.368637,182.905701 
	C244.830734,180.930267 246.932846,178.960495 249.473083,176.997894 
	C253.310547,177.370255 256.709869,177.735428 260.109161,178.100616 
	C259.509583,180.189697 258.910004,182.278793 258.188965,184.708160 
z"/>
<path fill="#FD941F" opacity="1.000000" stroke="none" 
	d="
M249.034943,176.990723 
	C246.932846,178.960495 244.830734,180.930267 242.299011,182.542816 
	C235.942337,177.645767 228.780640,179.881119 226.915176,186.853210 
	C223.592773,186.895645 220.270386,186.938095 216.496765,186.951080 
	C214.394211,183.386597 215.068069,180.368073 217.799423,177.578888 
	C218.780060,176.577484 219.243256,175.069366 220.342682,173.409210 
	C223.514740,171.365723 226.286743,169.705551 229.514038,168.036652 
	C235.908890,168.725204 241.848450,169.422501 247.910950,170.488388 
	C248.367584,172.901566 248.701263,174.946152 249.034943,176.990723 
z"/>
<path fill="#FFE071" opacity="1.000000" stroke="none" 
	d="
M229.058731,168.045380 
	C226.286743,169.705551 223.514740,171.365723 220.373825,173.057434 
	C219.557480,172.738541 219.110046,172.388107 218.367081,172.001221 
	C215.990799,169.266418 214.764633,166.487732 217.569580,163.168488 
	C222.081894,163.486465 226.286987,163.994858 230.624817,165.080963 
	C230.191284,166.454239 229.625015,167.249817 229.058731,168.045380 
z"/>
<path fill="#F36B26" opacity="1.000000" stroke="none" 
	d="
M141.105484,321.945526 
	C146.061981,329.710510 151.018494,337.475525 156.138657,345.539429 
	C154.214630,346.225586 152.128815,346.936493 150.038956,346.948578 
	C133.911255,347.041962 117.782700,346.979370 101.654602,347.029144 
	C99.873505,347.034668 98.093658,347.442902 96.025635,348.021118 
	C95.003548,345.761353 94.269058,343.144775 93.304749,339.816132 
	C92.427834,333.738953 91.780754,328.373840 91.590050,323.005554 
	C98.452156,322.871826 104.858078,322.627502 111.263573,322.638428 
	C120.119286,322.653534 128.974503,322.898285 137.830414,322.937988 
	C138.920609,322.942871 140.013718,322.292328 141.105484,321.945526 
z"/>
<path fill="#FD941F" opacity="1.000000" stroke="none" 
	d="
M385.198090,420.426727 
	C379.330536,426.169159 373.463013,431.911621 367.181580,437.362793 
	C365.077148,436.714355 363.388824,436.060028 361.695831,436.047638 
	C349.555450,435.958496 337.412994,436.081360 325.274231,435.915741 
	C323.355316,435.889526 321.451630,434.748047 319.705139,433.859131 
	C323.557526,428.391052 327.245667,423.186035 331.406616,417.986908 
	C347.451752,417.995239 363.025391,417.902313 378.595093,418.108063 
	C380.805939,418.137268 382.997559,419.617859 385.198090,420.426727 
z"/>
<path fill="#EC4523" opacity="1.000000" stroke="none" 
	d="
M385.496521,420.250732 
	C382.997559,419.617859 380.805939,418.137268 378.595093,418.108063 
	C363.025391,417.902313 347.451752,417.995239 331.448364,417.623810 
	C333.072845,412.171783 335.128326,407.088745 337.640961,402.004272 
	C356.050018,402.001831 374.002045,401.965057 391.953583,402.048218 
	C394.049072,402.057922 396.141479,402.730225 398.235321,403.095337 
	C394.088531,408.755127 389.941742,414.414917 385.496521,420.250732 
z"/>
<path fill="#ED4D23" opacity="1.000000" stroke="none" 
	d="
M398.534973,402.934235 
	C396.141479,402.730225 394.049072,402.057922 391.953583,402.048218 
	C374.002045,401.965057 356.050018,402.001831 337.636169,401.614594 
	C338.078156,396.815643 338.982025,392.404846 339.885895,387.994080 
	C348.361115,387.988586 356.837830,388.081665 365.311096,387.950470 
	C374.170288,387.813324 383.025177,387.315491 391.883789,387.257599 
	C396.991730,387.224182 402.103333,387.749329 407.688171,388.040039 
	C405.053589,392.962402 401.944122,397.867767 398.534973,402.934235 
z"/>
<path fill="#E93321" opacity="1.000000" stroke="none" 
	d="
M151.988388,437.674164 
	C154.225113,436.774841 156.614136,435.798828 159.065994,435.600739 
	C163.093491,435.275299 167.161697,435.442108 171.212845,435.423462 
	C177.691208,435.393677 184.169922,435.409546 190.647949,435.348938 
	C193.232300,435.324768 195.815262,435.148468 199.099472,435.131226 
	C206.911957,440.670319 214.023834,446.119598 221.135712,451.568848 
	C219.492905,452.045868 217.854630,452.917023 216.206558,452.936005 
	C205.417572,453.060150 194.625687,452.934174 183.836838,453.063385 
	C181.994110,453.085449 180.161377,453.941254 178.131836,454.770294 
	C169.349396,449.401428 160.759155,443.674164 151.988388,437.674164 
z"/>
<path fill="#E93321" opacity="1.000000" stroke="none" 
	d="
M319.540924,434.122253 
	C321.451630,434.748047 323.355316,435.889526 325.274231,435.915741 
	C337.412994,436.081360 349.555450,435.958496 361.695831,436.047638 
	C363.388824,436.060028 365.077148,436.714355 366.864136,437.455811 
	C359.265533,443.218628 351.570465,448.597198 343.529053,454.023010 
	C338.452820,453.713531 333.727081,453.137634 328.992035,453.047485 
	C320.257843,452.881195 311.517700,453.049255 302.781403,452.953247 
	C301.258698,452.936523 299.742737,452.307343 298.374664,451.350769 
	C305.530762,445.201111 312.535858,439.661682 319.540924,434.122253 
z"/>
<path fill="#FFD34A" opacity="1.000000" stroke="none" 
	d="
M102.388039,206.307251 
	C110.223457,208.188614 117.209190,208.148163 124.175415,203.146530 
	C130.718307,198.448822 138.183701,195.035934 145.979721,191.183838 
	C152.372086,191.873398 158.041382,192.333603 163.674744,193.069214 
	C165.175949,193.265228 166.567001,194.304855 167.613312,194.984253 
	C157.099472,197.149734 148.248383,201.945038 139.998245,207.998260 
	C140.000000,208.000000 139.996613,207.995590 139.656067,208.023621 
	C137.871902,209.030212 136.428299,210.008759 134.656006,211.028748 
	C133.226547,211.727112 132.125793,212.384048 130.701584,213.052155 
	C129.580643,213.705002 128.783173,214.346680 127.691940,215.019241 
	C126.932495,215.366745 126.466827,215.683365 125.626480,216.034637 
	C116.403549,219.913132 107.649742,221.307938 99.190567,215.064102 
	C100.177666,212.217316 101.164764,209.370529 102.388039,206.307251 
z"/>
<path fill="#FEA12D" opacity="1.000000" stroke="none" 
	d="
M378.005615,203.984894 
	C379.749481,202.990356 381.449890,201.228775 383.244293,201.127213 
	C393.974976,200.519913 404.727325,200.295074 415.980164,199.904633 
	C418.917328,207.326965 421.346741,214.786606 423.780945,222.627045 
	C423.050110,223.014999 422.314514,223.022186 420.829895,223.027130 
	C418.002350,222.975815 415.888306,223.152039 413.852631,222.831024 
	C409.547180,222.152084 404.657379,222.265808 401.127747,220.168610 
	C393.062439,215.376404 385.670837,209.450378 378.005615,203.984894 
z"/>
<path fill="#FEA932" opacity="1.000000" stroke="none" 
	d="
M99.076683,215.411087 
	C107.649742,221.307938 116.403549,219.913132 125.576477,216.378937 
	C119.815247,221.451111 113.693832,225.866180 105.251137,222.319504 
	C104.127151,221.847321 102.431732,222.735382 101.000946,222.993530 
	C99.964310,222.664825 98.927681,222.336136 97.541481,222.009796 
	C97.782211,219.927460 98.372505,217.842773 99.076683,215.411087 
z"/>
<path fill="#FFBA3A" opacity="1.000000" stroke="none" 
	d="
M397.001068,164.501892 
	C393.896027,165.220139 390.705444,165.614090 387.170929,166.031372 
	C385.964081,160.784561 385.101227,155.514450 384.127838,149.569351 
	C389.465454,153.604492 392.992676,159.080536 397.001068,164.501892 
z"/>
<path fill="#FFBF3C" opacity="1.000000" stroke="none" 
	d="
M336.033020,103.970467 
	C335.874969,103.829193 335.699982,103.705917 335.524994,103.582642 
	C335.628876,103.625732 335.732727,103.668823 335.912476,103.870636 
	C335.988342,104.029366 336.016052,103.988472 336.033020,103.970467 
z"/>
<path fill="#FFE47D" opacity="1.000000" stroke="none" 
	d="
M297.561157,155.956512 
	C301.616394,159.779480 305.259644,163.551056 308.499084,167.661011 
	C303.707916,168.010315 299.320526,168.021240 294.599487,167.882568 
	C289.512909,164.796204 285.226868,166.835953 280.537964,168.976013 
	C276.088379,168.314331 272.051605,167.658936 268.039001,166.657928 
	C269.134216,164.572571 270.205292,162.832809 271.276367,161.093033 
	C279.247986,156.108871 287.569977,152.872147 297.561157,155.956512 
z"/>
<path fill="#FFE47D" opacity="1.000000" stroke="none" 
	d="
M217.876801,162.978058 
	C219.164230,161.214310 220.451675,159.450577 221.890930,157.399704 
	C232.487854,148.167938 246.582779,151.450516 256.624542,161.221466 
	C257.348389,162.794815 257.701172,163.870407 257.760315,165.249741 
	C253.281570,165.720078 249.096481,165.886703 244.537689,165.992661 
	C239.910172,163.585175 235.536163,163.230209 230.758820,164.821289 
	C226.286987,163.994858 222.081894,163.486465 217.876801,162.978058 
z"/>
<path fill="#FEAF35" opacity="1.000000" stroke="none" 
	d="
M258.053925,164.946014 
	C257.701172,163.870407 257.348389,162.794815 256.911713,161.387238 
	C261.314301,161.046921 265.800781,161.038574 270.781830,161.061615 
	C270.205292,162.832809 269.134216,164.572571 267.758728,166.891083 
	C265.817230,171.868027 263.670349,176.209457 265.944244,181.413757 
	C266.283844,183.200012 266.622101,184.615524 266.590637,186.095184 
	C263.281769,190.192749 263.655029,194.545609 264.555115,198.993500 
	C262.411652,198.998398 260.696747,199.000366 258.999268,198.581696 
	C259.345856,196.227356 260.081970,194.255066 259.903229,192.369537 
	C259.668488,189.893402 258.713013,187.485611 258.188965,184.708160 
	C258.910004,182.278793 259.509583,180.189697 260.364380,177.790741 
	C261.516083,172.944046 261.011719,168.693939 258.053925,164.946014 
z"/>
<path fill="#FEA12D" opacity="1.000000" stroke="none" 
	d="
M258.981812,199.002350 
	C260.696747,199.000366 262.411652,198.998398 264.699280,199.316803 
	C268.416626,203.559769 270.950684,208.275558 274.821289,211.255020 
	C286.071136,219.914841 299.912720,220.031265 313.201935,220.758759 
	C323.916870,221.345322 334.719543,220.162903 345.485107,220.104797 
	C348.320343,220.089493 351.162323,221.332428 354.001221,221.997574 
	C352.506836,222.997925 351.095734,224.679901 349.502838,224.874573 
	C344.097778,225.535126 338.622894,225.602646 333.188080,226.057129 
	C331.971039,226.158920 330.831787,227.217255 329.616577,227.310120 
	C325.702393,227.609222 321.769958,227.684479 317.842957,227.781052 
	C317.411530,227.791641 316.848694,227.087692 316.550537,227.210388 
	C309.551025,230.090195 302.804718,225.498383 295.629974,226.739822 
	C288.686340,227.941254 281.365997,226.806900 274.222626,227.044571 
	C258.006104,227.584106 241.800461,228.458710 225.583191,228.967133 
	C209.831924,229.460953 194.067169,229.529373 178.316666,230.040878 
	C163.595078,230.518982 148.886124,231.378586 134.166550,231.936951 
	C132.520874,231.999374 130.842209,231.192307 129.244537,230.086456 
	C133.673843,226.703278 138.088669,224.101532 142.391769,221.326523 
	C157.202957,211.775024 172.888306,208.156799 190.594025,211.687302 
	C202.018311,213.965286 213.898605,214.820282 225.568451,214.774063 
	C238.771576,214.721771 251.221634,211.388885 258.981812,199.002350 
z"/>
<path fill="#FC9B2B" opacity="1.000000" stroke="none" 
	d="
M387.062531,226.306107 
	C387.926453,226.438599 388.832794,226.922699 389.880432,227.694092 
	C389.049500,227.540161 388.077209,227.098938 387.062531,226.306107 
z"/>
<path fill="#FEA932" opacity="1.000000" stroke="none" 
	d="
M380.077820,221.297424 
	C380.941864,221.431305 381.841736,221.917496 382.884583,222.689423 
	C382.056244,222.533325 381.084930,222.091522 380.077820,221.297424 
z"/>
<path fill="#FEA932" opacity="1.000000" stroke="none" 
	d="
M376.066467,218.322266 
	C376.924683,218.456436 377.825653,218.938538 378.864563,219.709702 
	C378.038086,219.555908 377.073639,219.113068 376.066467,218.322266 
z"/>
<path fill="#FEA932" opacity="1.000000" stroke="none" 
	d="
M373.073395,216.314606 
	C373.936554,216.443497 374.837921,216.922424 375.879211,217.688522 
	C375.049957,217.538681 374.080811,217.101669 373.073395,216.314606 
z"/>
<path fill="#F57827" opacity="1.000000" stroke="none" 
	d="
M91.590042,323.005554 
	C90.820251,315.979614 90.506836,308.950500 90.306084,301.464905 
	C104.005859,301.005615 117.593147,300.968231 131.179871,301.038879 
	C133.123337,301.049011 135.064102,301.581512 137.404541,301.936279 
	C138.023911,304.469788 138.244858,306.939240 138.726135,309.706177 
	C139.678345,313.720490 140.370224,317.437378 141.083786,321.549866 
	C140.013718,322.292328 138.920609,322.942871 137.830414,322.937988 
	C128.974503,322.898285 120.119286,322.653534 111.263573,322.638428 
	C104.858078,322.627502 98.452156,322.871826 91.590042,323.005554 
z"/>
<path fill="#F57827" opacity="1.000000" stroke="none" 
	d="
M428.092285,321.591187 
	C417.080688,321.918945 406.151703,321.913208 395.225861,321.724701 
	C389.968567,321.633972 384.717163,321.198547 378.953735,320.865051 
	C378.985687,318.151184 379.526947,315.491425 380.055786,312.418427 
	C380.376923,306.316559 380.710541,300.627930 381.081726,294.473389 
	C396.470642,294.004364 411.822021,294.001221 427.616272,293.996063 
	C428.098175,303.056885 428.137177,312.119720 428.092285,321.591187 
z"/>
<path fill="#3A2E43" opacity="1.000000" stroke="none" 
	d="
M235.897812,420.960663 
	C227.103394,414.044403 223.054520,404.909729 222.724442,392.982941 
	C247.532837,399.292633 271.846161,400.173767 296.569611,392.788940 
	C296.483765,402.979492 293.338013,411.027435 286.402496,417.694580 
	C271.309662,404.532227 247.390518,406.156342 235.897812,420.960663 
z"/>
<path fill="#3A2E43" opacity="1.000000" stroke="none" 
	d="
M310.969360,337.203278 
	C300.808228,336.029877 293.985718,330.139099 292.939087,321.635284 
	C291.840332,312.707947 296.515533,304.897156 304.730255,301.935883 
	C313.485962,298.779602 322.990479,302.332825 327.401215,310.411316 
	C332.077759,318.976593 329.484711,328.095215 319.885590,334.913757 
	C316.496735,335.857880 313.733032,336.530579 310.969360,337.203278 
M306.374634,321.871765 
	C308.422424,319.272766 308.682190,316.317596 306.077057,314.377472 
	C304.404144,313.131592 301.232544,312.334473 299.545410,313.108246 
	C297.835083,313.892639 296.183685,316.848572 296.166565,318.867554 
	C296.127716,323.440125 300.898132,325.022858 306.374634,321.871765 
z"/>
<path fill="#3A2E43" opacity="1.000000" stroke="none" 
	d="
M197.428635,335.847931 
	C190.729477,331.864441 186.280930,326.438995 186.584808,318.211029 
	C186.952942,308.243530 195.166779,300.727020 205.350998,300.863220 
	C215.415771,300.997833 223.427002,308.990295 223.450302,318.920135 
	C223.472977,328.594086 215.760574,336.552490 205.887482,337.023773 
	C204.893585,337.071228 203.894745,337.015198 202.143494,336.927399 
	C200.068726,336.514374 198.748688,336.181152 197.428635,335.847931 
M191.951080,310.840057 
	C189.898605,315.794495 191.184616,319.705933 195.424988,319.916901 
	C197.489578,320.019653 200.574173,318.747925 201.503189,317.127380 
	C202.417938,315.531708 201.940308,312.147705 200.741241,310.545532 
	C198.541016,307.605621 195.299393,308.004913 191.951080,310.840057 
z"/>
<path fill="#FC6E2D" opacity="1.000000" stroke="none" 
	d="
M236.074661,421.257233 
	C247.390518,406.156342 271.309662,404.532227 286.117310,417.857880 
	C273.759399,432.136078 252.413696,433.586670 236.074661,421.257233 
z"/>
<path fill="#403348" opacity="1.000000" stroke="none" 
	d="
M251.638763,349.591919 
	C258.253021,345.465332 264.838074,345.227264 271.341827,348.575531 
	C276.832855,351.402405 276.866272,356.771973 271.460785,359.705017 
	C265.525269,362.925690 259.316925,362.901093 253.317581,359.818420 
	C248.603851,357.396362 248.102844,354.265198 251.638763,349.591919 
z"/>
<path fill="#403348" opacity="1.000000" stroke="none" 
	d="
M199.391022,275.687469 
	C213.129608,276.148834 222.073669,284.573639 224.234131,299.521088 
	C221.900879,296.773132 220.046448,294.682495 218.295120,292.508728 
	C213.335632,286.352997 207.156540,283.803741 199.335907,285.938721 
	C199.017853,286.025543 198.677734,286.028534 198.349991,286.083191 
	C194.442261,286.734558 189.851151,289.288483 187.984467,283.251648 
	C186.972534,279.979126 190.867462,277.003479 197.007019,275.937500 
	C197.660477,275.824036 198.328583,275.795013 199.391022,275.687469 
z"/>
<path fill="#403348" opacity="1.000000" stroke="none" 
	d="
M293.884705,297.981903 
	C297.219604,293.541107 300.070099,288.604614 303.995728,284.768311 
	C310.995117,277.928101 321.529602,277.333313 328.677704,282.615387 
	C331.022614,284.348114 333.386108,286.455750 331.592651,289.634674 
	C329.797150,292.817291 326.636536,292.947906 323.779785,291.191528 
	C314.276367,285.348724 306.130341,287.746094 298.530548,294.838287 
	C297.377838,295.914001 295.802673,296.537018 294.178711,297.665192 
	C293.934509,297.960968 293.884705,297.981903 293.884705,297.981903 
z"/>
<path fill="#FFC5BA" opacity="1.000000" stroke="none" 
	d="
M310.793091,337.477661 
	C313.733032,336.530579 316.496735,335.857880 319.631409,335.137024 
	C324.491791,335.825073 329.056488,336.275330 333.436127,337.428436 
	C335.375763,337.939117 336.940979,339.872070 338.676178,341.159363 
	C337.044128,342.420868 335.468445,344.674713 333.770172,344.771179 
	C326.609375,345.178070 319.401855,345.148315 312.235168,344.796021 
	C310.431183,344.707336 308.715088,342.831909 306.372772,341.425934 
	C308.246765,339.803711 309.431793,338.777893 310.793091,337.477661 
z"/>
<path fill="#FFC5BA" opacity="1.000000" stroke="none" 
	d="
M196.936127,335.890930 
	C198.748688,336.181152 200.068726,336.514374 201.708633,336.978455 
	C203.624237,338.217194 205.219955,339.325104 207.679733,341.032928 
	C205.515900,342.525208 203.908218,344.566101 202.209961,344.644440 
	C194.705856,344.990845 187.165588,344.971710 179.663528,344.590851 
	C178.161545,344.514557 176.769104,342.280914 175.326141,341.041992 
	C176.795334,339.900421 178.142059,338.018921 179.755981,337.751801 
	C185.267838,336.839539 190.873657,336.495056 196.936127,335.890930 
z"/>
<path fill="#403348" opacity="1.000000" stroke="none" 
	d="
M293.942657,297.935730 
	C293.950806,297.910461 293.800507,298.090363 293.800507,298.090363 
	C293.800507,298.090363 294.037964,298.020935 293.961334,298.001404 
	C293.884705,297.981903 293.934509,297.960968 293.942657,297.935730 
z"/>
<path fill="#FEAF35" opacity="1.000000" stroke="none" 
	d="
M227.344864,186.902893 
	C228.780640,179.881119 235.942337,177.645767 241.938995,182.548462 
	C237.263931,184.258423 232.519241,185.605499 227.344864,186.902893 
z"/>
<path fill="#FEA932" opacity="1.000000" stroke="none" 
	d="
M297.989471,190.580536 
	C292.004913,191.492004 286.998627,189.019791 282.151245,185.314270 
	C289.061798,180.351822 294.088470,182.000290 297.989471,190.580536 
z"/>
</svg>