<svg width="200" height="200" viewBox="0 0 200 200" fill="none" xmlns="http://www.w3.org/2000/svg">
  <!-- The "t" letter path from the original Typst logo -->
  <path fill="#2CADAF" opacity="1.000000" stroke="none"
    d="M103.435211,157.135254
    C97.904488,155.498810 92.806267,153.807770 87.353943,152.117950
    C82.865913,148.188461 80.323616,143.496262 80.168732,137.690033
    C80.019661,132.101730 79.909943,126.512383 79.698105,120.461761
    C79.668884,111.309738 79.724495,102.619453 79.780045,93.006256
    C79.779991,86.736046 79.779991,81.388748 79.779991,75.645462
    C76.876350,75.645462 74.727806,75.420334 72.645393,75.695518
    C69.062462,76.169014 68.811180,73.630562 68.068016,71.266899
    C67.135948,68.302414 68.549370,67.033043 71.164452,66.442429
    C73.961266,65.623428 76.758087,64.804420 79.772942,63.921574
    C79.772942,61.055889 79.772942,58.464306 79.687759,55.436028
    C82.598297,53.216106 85.594017,51.432873 88.808708,49.372948
    C94.141289,46.882477 99.254898,44.668697 104.944412,42.205601
    C104.944412,49.930866 104.944412,57.133110 104.944412,65.067451
    C113.262558,64.537407 121.099571,64.038017 129.437210,63.506733
    C129.246552,65.495743 129.067123,67.367729 128.754852,69.967346
    C128.752762,76.212364 125.909714,77.522400 120.838669,76.815292
    C116.619591,76.226974 112.281502,76.492043 107.662483,76.292694
    C106.874649,76.249214 106.420456,76.292152 105.761917,76.300865
    C105.246353,76.413704 105.156219,76.646400 105.193840,77.427361
    C105.084373,87.356224 105.060379,96.822456 105.054504,106.288696
    C105.049660,114.094330 104.939354,121.902695 105.105751,129.704941
    C105.310226,139.292938 110.706581,143.203690 119.942085,140.288544
    C123.492889,139.167740 126.756584,137.137329 130.497528,135.411713
    C134.256943,136.714691 135.793640,139.142212 134.934937,142.865387
    C128.472427,146.872818 122.217583,151.289963 115.460022,154.715347
    C112.067879,156.434830 107.760941,156.349670 103.435211,157.135254
    z"/>
</svg>
